<svg xmlns="http://www.w3.org/2000/svg" xmlns:xlink="http://www.w3.org/1999/xlink" width="500" zoomAndPan="magnify" viewBox="0 0 375 374.999991" height="500" preserveAspectRatio="xMidYMid meet" version="1.0"><defs><g/><clipPath id="99381f6365"><path d="M 132 134 L 255 134 L 255 216.515625 L 132 216.515625 Z M 132 134 " clip-rule="nonzero"/></clipPath><clipPath id="0ef2f5a2ab"><path d="M 111 115.265625 L 264.53125 115.265625 L 264.53125 172 L 111 172 Z M 111 115.265625 " clip-rule="nonzero"/></clipPath></defs><g clip-path="url(#99381f6365)"><path fill="#f78900" d="M 192.039062 134.710938 C 191.613281 134.75 191.109375 137.089844 192.503906 141.222656 C 193.027344 142.773438 193.898438 144.566406 195.332031 146.320312 C 196.441406 147.652344 197.855469 148.921875 199.574219 150.007812 C 201.109375 150.976562 202.847656 151.761719 204.746094 152.367188 C 208.28125 153.496094 212.160156 154 216.421875 154 C 220.097656 154 223.9375 153.636719 227.957031 152.953125 C 231.390625 152.386719 235.25 152.710938 238.601562 154.34375 C 241.410156 155.675781 243.976562 157.910156 245.710938 160.714844 C 247.269531 163.253906 248.21875 166.316406 248.035156 169.28125 C 247.914062 172.203125 246.5625 175.246094 244.417969 177.542969 C 242.078125 180.085938 238.882812 182 235.347656 183.167969 C 231.734375 184.378906 227.734375 184.820312 223.511719 185.003906 C 223.066406 185.023438 222.621094 185.023438 222.179688 185.042969 C 218.199219 185.125 214.078125 184.902344 210.039062 184.71875 C 205.472656 184.480469 201.027344 184.238281 196.421875 184.378906 C 194.804688 184.417969 193.25 184.257812 191.855469 183.792969 C 190.582031 183.390625 189.371094 182.726562 188.300781 181.898438 C 185.9375 180.144531 184.160156 177.34375 182.625 174.441406 C 180.886719 171.09375 179.554688 167.363281 178.300781 163.796875 C 176.988281 160.046875 175.835938 156.5625 174.199219 152.992188 C 172.121094 148.417969 169.332031 144.488281 165.9375 141.464844 C 162.605469 138.539062 158.847656 136.726562 155.292969 135.777344 C 150.910156 134.628906 146.789062 134.648438 143.59375 135.011719 C 135.757812 135.859375 131.859375 138.015625 132.019531 138.558594 C 132.160156 139.105469 136.425781 138.035156 143.757812 138.175781 C 146.707031 138.238281 150.445312 138.582031 154.039062 139.890625 C 156.949219 140.9375 159.957031 142.671875 162.484375 145.210938 C 165.128906 147.832031 167.230469 151.257812 168.90625 155.332031 C 170.242188 158.597656 171.171875 161.902344 172.382812 165.8125 C 173.511719 169.460938 174.828125 173.492188 176.707031 177.421875 C 178.300781 180.871094 180.585938 184.457031 184.039062 187.320312 C 185.675781 188.652344 187.574219 189.738281 189.675781 190.445312 C 191.957031 191.210938 194.320312 191.535156 196.644531 191.472656 C 200.867188 191.390625 205.109375 191.675781 209.714844 191.9375 C 213.753906 192.179688 218.035156 192.402344 222.359375 192.320312 C 222.84375 192.320312 223.328125 192.300781 223.816406 192.28125 C 228.441406 192.136719 233.128906 191.535156 237.671875 190.042969 C 242.257812 188.511719 246.441406 185.890625 249.671875 182.363281 C 252.882812 178.8125 254.761719 174.257812 254.925781 169.601562 C 255.046875 165.027344 253.632812 160.714844 251.289062 157.207031 C 248.722656 153.335938 245.148438 150.453125 241.1875 148.738281 C 236.421875 146.703125 231.347656 146.480469 226.90625 147.449219 C 223.167969 148.277344 219.671875 148.820312 216.320312 149.023438 C 212.402344 149.242188 209.027344 149.082031 205.917969 148.355469 C 204.261719 147.972656 202.765625 147.449219 201.429688 146.804688 C 199.9375 146.078125 198.683594 145.191406 197.652344 144.222656 C 196.320312 142.976562 195.351562 141.5625 194.644531 140.335938 C 192.824219 137.007812 192.441406 134.730469 192.039062 134.710938 Z M 194.039062 193.289062 C 187.613281 193.289062 182.402344 198.488281 182.402344 204.898438 C 182.402344 211.308594 187.613281 216.507812 194.039062 216.507812 C 200.460938 216.507812 205.675781 211.308594 205.675781 204.898438 C 205.675781 198.488281 200.460938 193.289062 194.039062 193.289062 Z M 239.753906 193.289062 C 233.328125 193.289062 228.117188 198.488281 228.117188 204.898438 C 228.117188 211.308594 233.328125 216.507812 239.753906 216.507812 C 246.175781 216.507812 251.390625 211.308594 251.390625 204.898438 C 251.390625 198.488281 246.175781 193.289062 239.753906 193.289062 Z M 194.019531 199.3125 C 197.128906 199.3125 199.652344 201.8125 199.652344 204.917969 C 199.652344 208.003906 197.148438 210.523438 194.039062 210.523438 C 190.945312 210.523438 188.421875 208.023438 188.421875 204.917969 C 188.421875 201.835938 190.925781 199.3125 194.019531 199.3125 Z M 239.734375 199.3125 C 242.84375 199.3125 245.371094 201.8125 245.371094 204.917969 C 245.371094 208.003906 242.863281 210.523438 239.753906 210.523438 C 236.664062 210.523438 234.136719 208.023438 234.136719 204.917969 C 234.136719 201.835938 236.640625 199.3125 239.734375 199.3125 Z M 239.734375 199.3125 " fill-opacity="1" fill-rule="nonzero"/></g><g clip-path="url(#0ef2f5a2ab)"><path fill="#458217" d="M 152.039062 115.257812 C 151.738281 115.257812 151.453125 115.277344 151.152344 115.300781 C 148.363281 119.429688 148.179688 124.792969 150.667969 129.105469 C 153.007812 133.136719 157.3125 135.617188 161.980469 135.636719 C 161.695312 135.175781 161.414062 134.691406 161.128906 134.1875 C 157.898438 128.582031 155.574219 123.867188 155.957031 123.644531 C 156.34375 123.421875 159.292969 127.777344 162.523438 133.378906 C 162.808594 133.863281 163.089844 134.347656 163.351562 134.832031 C 165.675781 130.800781 165.675781 125.820312 163.351562 121.789062 C 161.027344 117.738281 156.707031 115.257812 152.039062 115.257812 Z M 132.324219 117.375 C 132.140625 117.375 131.980469 117.375 131.816406 117.394531 C 129.414062 120.78125 129.171875 125.257812 131.171875 128.886719 C 133.050781 132.292969 136.605469 134.429688 140.484375 134.507812 C 140.261719 134.105469 140.039062 133.703125 139.796875 133.300781 C 137.191406 128.582031 135.355469 124.589844 135.675781 124.429688 C 136 124.25 138.382812 127.9375 140.96875 132.652344 C 141.191406 133.078125 141.414062 133.480469 141.636719 133.882812 C 143.65625 130.558594 143.738281 126.425781 141.859375 123.019531 C 139.960938 119.53125 136.304688 117.375 132.324219 117.375 Z M 188.746094 120.722656 C 186.726562 122.554688 185.917969 125.378906 186.683594 127.996094 C 187.390625 130.457031 189.371094 132.332031 191.835938 132.957031 C 191.753906 132.675781 191.652344 132.371094 191.574219 132.070312 C 190.582031 128.664062 189.976562 125.839844 190.21875 125.78125 C 190.460938 125.71875 191.453125 128.421875 192.441406 131.828125 C 192.523438 132.128906 192.605469 132.414062 192.683594 132.714844 C 194.460938 130.878906 195.109375 128.238281 194.402344 125.78125 C 193.632812 123.160156 191.433594 121.183594 188.746094 120.722656 Z M 212.542969 126.101562 C 212.238281 126.101562 211.957031 126.125 211.652344 126.144531 C 208.867188 130.277344 208.683594 135.636719 211.167969 139.953125 C 213.511719 143.984375 217.816406 146.460938 222.480469 146.480469 C 222.199219 146.019531 221.914062 145.535156 221.632812 145.03125 C 218.402344 139.425781 216.078125 134.710938 216.460938 134.488281 C 216.84375 134.265625 219.792969 138.621094 223.027344 144.222656 C 223.308594 144.707031 223.59375 145.191406 223.855469 145.675781 C 226.179688 141.644531 226.179688 136.664062 223.855469 132.632812 C 221.550781 128.582031 217.230469 126.101562 212.542969 126.101562 Z M 180.21875 127.636719 C 176.363281 127.636719 172.804688 129.671875 170.847656 132.996094 C 168.867188 136.34375 168.828125 140.476562 170.746094 143.863281 C 170.96875 143.457031 171.210938 143.054688 171.453125 142.652344 C 174.199219 138.015625 176.683594 134.386719 177.007812 134.589844 C 177.332031 134.769531 175.371094 138.703125 172.625 143.335938 C 172.382812 143.742188 172.140625 144.144531 171.917969 144.527344 C 175.816406 144.566406 179.414062 142.511719 181.390625 139.164062 C 183.511719 135.597656 183.390625 131.121094 181.089844 127.65625 C 180.804688 127.636719 180.523438 127.636719 180.21875 127.636719 Z M 199.410156 130.78125 C 197.390625 132.613281 196.582031 135.4375 197.351562 138.054688 C 198.058594 140.515625 200.039062 142.390625 202.503906 143.015625 C 202.421875 142.734375 202.320312 142.429688 202.238281 142.128906 C 201.25 138.722656 200.644531 135.898438 200.886719 135.839844 C 201.128906 135.777344 202.117188 138.480469 203.109375 141.886719 C 203.1875 142.1875 203.269531 142.472656 203.351562 142.773438 C 205.128906 140.9375 205.773438 138.296875 205.066406 135.839844 C 204.300781 133.21875 202.097656 131.261719 199.410156 130.78125 Z M 248.804688 132.128906 C 245.734375 134.933594 244.539062 139.246094 245.710938 143.214844 C 246.824219 146.945312 249.832031 149.789062 253.609375 150.695312 C 253.46875 150.25 253.347656 149.808594 253.207031 149.363281 C 251.671875 144.203125 250.722656 139.910156 251.085938 139.808594 C 251.449219 139.710938 252.964844 143.820312 254.5 148.980469 C 254.640625 149.445312 254.761719 149.890625 254.882812 150.3125 C 257.570312 147.488281 258.539062 143.480469 257.429688 139.75 C 256.257812 135.777344 252.902344 132.816406 248.804688 132.128906 Z M 124.605469 133.5 C 121.757812 133.5 118.992188 134.429688 116.726562 136.121094 C 112.75 139.125 110.808594 144.125 111.757812 149.023438 C 116.203125 151.28125 121.554688 150.816406 125.554688 147.8125 C 129.292969 145.011719 131.234375 140.433594 130.667969 135.820312 C 130.242188 136.160156 129.777344 136.484375 129.332031 136.828125 C 124.164062 140.71875 119.738281 143.578125 119.476562 143.238281 C 119.210938 142.875 123.191406 139.425781 128.363281 135.535156 C 128.828125 135.195312 129.273438 134.851562 129.71875 134.527344 C 128.101562 133.84375 126.363281 133.5 124.605469 133.5 Z M 233.792969 134.933594 C 233.570312 134.933594 233.347656 134.953125 233.128906 134.972656 C 231.671875 137.289062 231.652344 140.214844 233.085938 142.53125 C 234.441406 144.707031 236.824219 146 239.390625 145.917969 C 239.226562 145.65625 239.066406 145.414062 238.90625 145.132812 C 237.046875 142.109375 235.691406 139.566406 235.894531 139.445312 C 236.097656 139.328125 237.792969 141.664062 239.652344 144.667969 C 239.8125 144.929688 239.976562 145.191406 240.136719 145.453125 C 241.347656 143.214844 241.269531 140.476562 239.914062 138.320312 C 238.621094 136.203125 236.277344 134.910156 233.792969 134.933594 Z M 145.574219 141.078125 C 142.808594 141.078125 140.140625 142.1875 138.183594 144.144531 C 135.355469 146.964844 134.382812 151.160156 135.675781 154.949219 C 139.476562 156.238281 143.65625 155.269531 146.503906 152.449219 C 149.152344 149.808594 150.179688 145.957031 149.210938 142.351562 C 148.910156 142.671875 148.585938 142.976562 148.261719 143.296875 C 144.585938 146.964844 141.394531 149.726562 141.152344 149.484375 C 140.890625 149.222656 143.675781 146.058594 147.351562 142.390625 C 147.675781 142.066406 148 141.746094 148.300781 141.441406 C 147.414062 141.199219 146.503906 141.078125 145.574219 141.078125 Z M 183.414062 146.097656 C 180.683594 146.300781 178.300781 148.015625 177.269531 150.554688 C 176.320312 152.914062 176.683594 155.613281 178.261719 157.628906 C 178.363281 157.347656 178.484375 157.066406 178.605469 156.78125 C 179.9375 153.496094 181.191406 150.917969 181.433594 150.996094 C 181.65625 151.097656 180.765625 153.820312 179.433594 157.105469 C 179.3125 157.386719 179.191406 157.667969 179.089844 157.953125 C 181.613281 157.589844 183.777344 155.914062 184.726562 153.558594 C 185.753906 151.039062 185.25 148.136719 183.414062 146.097656 Z M 157.898438 146.785156 C 156.261719 146.785156 154.664062 147.367188 153.394531 148.398438 C 153.453125 151.117188 155.070312 153.578125 157.574219 154.726562 C 159.898438 155.792969 162.625 155.53125 164.707031 154.0625 C 164.421875 153.941406 164.160156 153.820312 163.878906 153.679688 C 160.644531 152.207031 158.121094 150.816406 158.222656 150.59375 C 158.324219 150.371094 161.027344 151.402344 164.242188 152.871094 C 164.523438 152.992188 164.808594 153.132812 165.070312 153.253906 C 164.828125 150.714844 163.25 148.496094 160.929688 147.429688 C 159.957031 147.007812 158.929688 146.785156 157.898438 146.785156 Z M 192.785156 148.941406 C 192.441406 148.941406 192.078125 148.960938 191.734375 149.023438 C 189.027344 149.425781 186.785156 151.320312 185.957031 153.921875 C 187.492188 156.179688 190.199219 157.347656 192.90625 156.964844 C 195.433594 156.601562 197.574219 154.90625 198.523438 152.53125 C 198.21875 152.570312 197.917969 152.628906 197.613281 152.671875 C 194.097656 153.175781 191.230469 153.394531 191.191406 153.152344 C 191.148438 152.914062 193.976562 152.308594 197.492188 151.785156 C 197.796875 151.742188 198.097656 151.703125 198.402344 151.664062 C 197.046875 149.929688 194.96875 148.941406 192.785156 148.941406 Z M 262.175781 151.519531 C 259.449219 151.722656 257.066406 153.4375 256.035156 155.976562 C 255.085938 158.335938 255.449219 161.035156 257.023438 163.050781 C 257.125 162.769531 257.246094 162.488281 257.367188 162.203125 C 258.703125 158.917969 259.953125 156.339844 260.195312 156.417969 C 260.417969 156.519531 259.53125 159.242188 258.195312 162.527344 C 258.074219 162.808594 257.953125 163.089844 257.851562 163.375 C 260.378906 163.011719 262.539062 161.339844 263.488281 158.980469 C 264.519531 156.441406 263.996094 153.558594 262.175781 151.519531 Z M 207.652344 155.027344 C 204.886719 155.027344 202.21875 156.136719 200.261719 158.09375 C 197.433594 160.914062 196.460938 165.109375 197.753906 168.898438 C 201.554688 170.1875 205.734375 169.21875 208.582031 166.398438 C 211.230469 163.757812 212.257812 159.90625 211.289062 156.296875 C 210.988281 156.621094 210.664062 156.921875 210.339844 157.246094 C 206.664062 160.914062 203.472656 163.675781 203.230469 163.433594 C 202.96875 163.171875 205.753906 160.007812 209.429688 156.339844 C 209.753906 156.015625 210.078125 155.695312 210.378906 155.390625 C 209.492188 155.148438 208.5625 155.027344 207.652344 155.027344 Z M 222.722656 156.277344 C 220.199219 156.277344 217.875 157.609375 216.582031 159.746094 C 215.167969 162.082031 215.230469 165.027344 216.722656 167.304688 C 219.449219 167.527344 222.078125 166.195312 223.472656 163.859375 C 224.785156 161.660156 224.824219 158.9375 223.59375 156.722656 C 223.429688 156.984375 223.289062 157.246094 223.128906 157.507812 C 221.308594 160.550781 219.652344 162.910156 219.449219 162.789062 C 219.25 162.667969 220.542969 160.089844 222.378906 157.066406 C 222.542969 156.800781 222.703125 156.539062 222.863281 156.277344 C 222.804688 156.277344 222.765625 156.277344 222.722656 156.277344 Z M 236.542969 156.964844 C 233.773438 156.964844 231.105469 158.074219 229.148438 160.027344 C 226.320312 162.851562 225.351562 167.042969 226.644531 170.832031 C 230.441406 172.121094 234.621094 171.15625 237.46875 168.332031 C 240.117188 165.691406 241.148438 161.84375 240.175781 158.234375 C 239.875 158.554688 239.550781 158.859375 239.226562 159.179688 C 235.550781 162.851562 232.359375 165.613281 232.117188 165.371094 C 231.855469 165.109375 234.640625 161.941406 238.320312 158.273438 C 238.640625 157.953125 238.964844 157.628906 239.269531 157.328125 C 238.398438 157.085938 237.46875 156.964844 236.542969 156.964844 Z M 236.542969 156.964844 " fill-opacity="1" fill-rule="nonzero"/></g><g fill="#f78900" fill-opacity="1"><g transform="translate(74.98437, 239.532567)"><g><path d="M 10.53125 0.25 C 8.738281 0.25 7.125 -0.132812 5.6875 -0.90625 C 4.257812 -1.6875 3.132812 -2.765625 2.3125 -4.140625 C 1.5 -5.515625 1.09375 -7.050781 1.09375 -8.75 C 1.09375 -10.445312 1.5 -11.984375 2.3125 -13.359375 C 3.132812 -14.734375 4.257812 -15.804688 5.6875 -16.578125 C 7.125 -17.359375 8.738281 -17.75 10.53125 -17.75 C 12.3125 -17.75 13.914062 -17.359375 15.34375 -16.578125 C 16.78125 -15.804688 17.90625 -14.738281 18.71875 -13.375 C 19.539062 -12.007812 19.953125 -10.46875 19.953125 -8.75 C 19.953125 -7.03125 19.539062 -5.488281 18.71875 -4.125 C 17.90625 -2.757812 16.78125 -1.6875 15.34375 -0.90625 C 13.914062 -0.132812 12.3125 0.25 10.53125 0.25 Z M 10.53125 -2.59375 C 11.695312 -2.59375 12.742188 -2.851562 13.671875 -3.375 C 14.609375 -3.90625 15.34375 -4.640625 15.875 -5.578125 C 16.40625 -6.523438 16.671875 -7.582031 16.671875 -8.75 C 16.671875 -9.914062 16.40625 -10.96875 15.875 -11.90625 C 15.34375 -12.851562 14.609375 -13.585938 13.671875 -14.109375 C 12.742188 -14.640625 11.695312 -14.90625 10.53125 -14.90625 C 9.363281 -14.90625 8.3125 -14.640625 7.375 -14.109375 C 6.4375 -13.585938 5.703125 -12.851562 5.171875 -11.90625 C 4.640625 -10.96875 4.375 -9.914062 4.375 -8.75 C 4.375 -7.582031 4.640625 -6.523438 5.171875 -5.578125 C 5.703125 -4.640625 6.4375 -3.90625 7.375 -3.375 C 8.3125 -2.851562 9.363281 -2.59375 10.53125 -2.59375 Z M 10.53125 -2.59375 "/></g></g></g><g fill="#f78900" fill-opacity="1"><g transform="translate(97.781031, 239.532567)"><g><path d="M 13.796875 0 L 10.21875 -5.125 C 10.070312 -5.101562 9.847656 -5.09375 9.546875 -5.09375 L 5.59375 -5.09375 L 5.59375 0 L 2.34375 0 L 2.34375 -17.5 L 9.546875 -17.5 C 11.066406 -17.5 12.390625 -17.25 13.515625 -16.75 C 14.640625 -16.25 15.5 -15.53125 16.09375 -14.59375 C 16.695312 -13.664062 17 -12.5625 17 -11.28125 C 17 -9.957031 16.675781 -8.820312 16.03125 -7.875 C 15.394531 -6.925781 14.476562 -6.21875 13.28125 -5.75 L 17.296875 0 Z M 13.71875 -11.28125 C 13.71875 -12.394531 13.351562 -13.25 12.625 -13.84375 C 11.894531 -14.445312 10.820312 -14.75 9.40625 -14.75 L 5.59375 -14.75 L 5.59375 -7.78125 L 9.40625 -7.78125 C 10.820312 -7.78125 11.894531 -8.082031 12.625 -8.6875 C 13.351562 -9.289062 13.71875 -10.15625 13.71875 -11.28125 Z M 13.71875 -11.28125 "/></g></g></g><g fill="#f78900" fill-opacity="1"><g transform="translate(117.803129, 239.532567)"><g><path d="M 14.296875 -8.953125 L 17.375 -8.953125 L 17.375 -1.96875 C 16.476562 -1.257812 15.425781 -0.710938 14.21875 -0.328125 C 13.019531 0.0546875 11.789062 0.25 10.53125 0.25 C 8.738281 0.25 7.125 -0.132812 5.6875 -0.90625 C 4.257812 -1.6875 3.132812 -2.757812 2.3125 -4.125 C 1.5 -5.488281 1.09375 -7.03125 1.09375 -8.75 C 1.09375 -10.46875 1.5 -12.007812 2.3125 -13.375 C 3.132812 -14.738281 4.265625 -15.804688 5.703125 -16.578125 C 7.148438 -17.359375 8.773438 -17.75 10.578125 -17.75 C 12.046875 -17.75 13.378906 -17.503906 14.578125 -17.015625 C 15.773438 -16.535156 16.78125 -15.832031 17.59375 -14.90625 L 15.546875 -12.90625 C 14.210938 -14.238281 12.601562 -14.90625 10.71875 -14.90625 C 9.488281 -14.90625 8.394531 -14.644531 7.4375 -14.125 C 6.476562 -13.601562 5.726562 -12.875 5.1875 -11.9375 C 4.644531 -11.007812 4.375 -9.945312 4.375 -8.75 C 4.375 -7.582031 4.644531 -6.53125 5.1875 -5.59375 C 5.726562 -4.664062 6.476562 -3.929688 7.4375 -3.390625 C 8.394531 -2.859375 9.484375 -2.59375 10.703125 -2.59375 C 12.066406 -2.59375 13.265625 -2.894531 14.296875 -3.5 Z M 14.296875 -8.953125 "/></g></g></g><g fill="#f78900" fill-opacity="1"><g transform="translate(138.850066, 239.532567)"><g><path d="M 13.703125 -4.046875 L 4.953125 -4.046875 L 3.21875 0 L -0.125 0 L 7.75 -17.5 L 10.953125 -17.5 L 18.84375 0 L 15.453125 0 Z M 12.625 -6.59375 L 9.328125 -14.25 L 6.046875 -6.59375 Z M 12.625 -6.59375 "/></g></g></g><g fill="#f78900" fill-opacity="1"><g transform="translate(159.322091, 239.532567)"><g><path d="M 17.90625 -17.5 L 17.90625 0 L 15.21875 0 L 5.578125 -11.84375 L 5.578125 0 L 2.34375 0 L 2.34375 -17.5 L 5.03125 -17.5 L 14.671875 -5.65625 L 14.671875 -17.5 Z M 17.90625 -17.5 "/></g></g></g><g fill="#f78900" fill-opacity="1"><g transform="translate(181.318882, 239.532567)"><g><path d="M 2.34375 -17.5 L 5.59375 -17.5 L 5.59375 0 L 2.34375 0 Z M 2.34375 -17.5 "/></g></g></g><g fill="#f78900" fill-opacity="1"><g transform="translate(191.042617, 239.532567)"><g><path d="M 10.453125 0.25 C 8.679688 0.25 7.082031 -0.132812 5.65625 -0.90625 C 4.238281 -1.6875 3.125 -2.757812 2.3125 -4.125 C 1.5 -5.488281 1.09375 -7.03125 1.09375 -8.75 C 1.09375 -10.46875 1.5 -12.007812 2.3125 -13.375 C 3.132812 -14.738281 4.257812 -15.804688 5.6875 -16.578125 C 7.113281 -17.359375 8.707031 -17.75 10.46875 -17.75 C 11.90625 -17.75 13.210938 -17.5 14.390625 -17 C 15.578125 -16.5 16.582031 -15.773438 17.40625 -14.828125 L 15.296875 -12.84375 C 14.035156 -14.21875 12.476562 -14.90625 10.625 -14.90625 C 9.425781 -14.90625 8.347656 -14.640625 7.390625 -14.109375 C 6.441406 -13.585938 5.703125 -12.859375 5.171875 -11.921875 C 4.640625 -10.992188 4.375 -9.9375 4.375 -8.75 C 4.375 -7.5625 4.640625 -6.5 5.171875 -5.5625 C 5.703125 -4.632812 6.441406 -3.90625 7.390625 -3.375 C 8.347656 -2.851562 9.425781 -2.59375 10.625 -2.59375 C 12.476562 -2.59375 14.035156 -3.285156 15.296875 -4.671875 L 17.40625 -2.671875 C 16.582031 -1.722656 15.570312 -1 14.375 -0.5 C 13.1875 0 11.878906 0.25 10.453125 0.25 Z M 10.453125 0.25 "/></g></g></g><g fill="#552200" fill-opacity="1"><g transform="translate(210.957021, 239.532567)"><g/></g></g><g fill="#f78900" fill-opacity="1"><g transform="translate(219.605458, 239.532567)"><g><path d="M 7.78125 0.25 C 6.425781 0.25 5.117188 0.0546875 3.859375 -0.328125 C 2.597656 -0.710938 1.601562 -1.21875 0.875 -1.84375 L 2 -4.375 C 2.71875 -3.8125 3.597656 -3.347656 4.640625 -2.984375 C 5.679688 -2.628906 6.726562 -2.453125 7.78125 -2.453125 C 9.070312 -2.453125 10.039062 -2.660156 10.6875 -3.078125 C 11.332031 -3.492188 11.65625 -4.039062 11.65625 -4.71875 C 11.65625 -5.21875 11.472656 -5.628906 11.109375 -5.953125 C 10.753906 -6.285156 10.300781 -6.539062 9.75 -6.71875 C 9.195312 -6.90625 8.445312 -7.113281 7.5 -7.34375 C 6.164062 -7.664062 5.085938 -7.984375 4.265625 -8.296875 C 3.441406 -8.617188 2.734375 -9.113281 2.140625 -9.78125 C 1.546875 -10.457031 1.25 -11.375 1.25 -12.53125 C 1.25 -13.488281 1.507812 -14.363281 2.03125 -15.15625 C 2.5625 -15.945312 3.351562 -16.578125 4.40625 -17.046875 C 5.46875 -17.515625 6.765625 -17.75 8.296875 -17.75 C 9.367188 -17.75 10.421875 -17.613281 11.453125 -17.34375 C 12.484375 -17.082031 13.375 -16.703125 14.125 -16.203125 L 13.09375 -13.671875 C 12.332031 -14.117188 11.535156 -14.457031 10.703125 -14.6875 C 9.867188 -14.925781 9.0625 -15.046875 8.28125 -15.046875 C 6.988281 -15.046875 6.03125 -14.828125 5.40625 -14.390625 C 4.78125 -13.960938 4.46875 -13.390625 4.46875 -12.671875 C 4.46875 -12.171875 4.644531 -11.757812 5 -11.4375 C 5.363281 -11.125 5.820312 -10.875 6.375 -10.6875 C 6.925781 -10.507812 7.675781 -10.304688 8.625 -10.078125 C 9.925781 -9.773438 10.992188 -9.460938 11.828125 -9.140625 C 12.660156 -8.816406 13.367188 -8.320312 13.953125 -7.65625 C 14.546875 -6.988281 14.84375 -6.085938 14.84375 -4.953125 C 14.84375 -3.984375 14.582031 -3.109375 14.0625 -2.328125 C 13.539062 -1.546875 12.742188 -0.921875 11.671875 -0.453125 C 10.609375 0.015625 9.3125 0.25 7.78125 0.25 Z M 7.78125 0.25 "/></g></g></g><g fill="#f78900" fill-opacity="1"><g transform="translate(237.077961, 239.532567)"><g><path d="M 17.90625 -17.5 L 17.90625 0 L 14.65625 0 L 14.65625 -7.5 L 5.59375 -7.5 L 5.59375 0 L 2.34375 0 L 2.34375 -17.5 L 5.59375 -17.5 L 5.59375 -10.28125 L 14.65625 -10.28125 L 14.65625 -17.5 Z M 17.90625 -17.5 "/></g></g></g><g fill="#f78900" fill-opacity="1"><g transform="translate(259.074749, 239.532567)"><g><path d="M 10.53125 0.25 C 8.738281 0.25 7.125 -0.132812 5.6875 -0.90625 C 4.257812 -1.6875 3.132812 -2.765625 2.3125 -4.140625 C 1.5 -5.515625 1.09375 -7.050781 1.09375 -8.75 C 1.09375 -10.445312 1.5 -11.984375 2.3125 -13.359375 C 3.132812 -14.734375 4.257812 -15.804688 5.6875 -16.578125 C 7.125 -17.359375 8.738281 -17.75 10.53125 -17.75 C 12.3125 -17.75 13.914062 -17.359375 15.34375 -16.578125 C 16.78125 -15.804688 17.90625 -14.738281 18.71875 -13.375 C 19.539062 -12.007812 19.953125 -10.46875 19.953125 -8.75 C 19.953125 -7.03125 19.539062 -5.488281 18.71875 -4.125 C 17.90625 -2.757812 16.78125 -1.6875 15.34375 -0.90625 C 13.914062 -0.132812 12.3125 0.25 10.53125 0.25 Z M 10.53125 -2.59375 C 11.695312 -2.59375 12.742188 -2.851562 13.671875 -3.375 C 14.609375 -3.90625 15.34375 -4.640625 15.875 -5.578125 C 16.40625 -6.523438 16.671875 -7.582031 16.671875 -8.75 C 16.671875 -9.914062 16.40625 -10.96875 15.875 -11.90625 C 15.34375 -12.851562 14.609375 -13.585938 13.671875 -14.109375 C 12.742188 -14.640625 11.695312 -14.90625 10.53125 -14.90625 C 9.363281 -14.90625 8.3125 -14.640625 7.375 -14.109375 C 6.4375 -13.585938 5.703125 -12.851562 5.171875 -11.90625 C 4.640625 -10.96875 4.375 -9.914062 4.375 -8.75 C 4.375 -7.582031 4.640625 -6.523438 5.171875 -5.578125 C 5.703125 -4.640625 6.4375 -3.90625 7.375 -3.375 C 8.3125 -2.851562 9.363281 -2.59375 10.53125 -2.59375 Z M 10.53125 -2.59375 "/></g></g></g><g fill="#f78900" fill-opacity="1"><g transform="translate(281.871407, 239.532567)"><g><path d="M 9.546875 -17.5 C 11.066406 -17.5 12.390625 -17.25 13.515625 -16.75 C 14.640625 -16.25 15.5 -15.53125 16.09375 -14.59375 C 16.695312 -13.664062 17 -12.5625 17 -11.28125 C 17 -10.007812 16.695312 -8.898438 16.09375 -7.953125 C 15.5 -7.015625 14.640625 -6.296875 13.515625 -5.796875 C 12.390625 -5.296875 11.066406 -5.046875 9.546875 -5.046875 L 5.59375 -5.046875 L 5.59375 0 L 2.34375 0 L 2.34375 -17.5 Z M 9.40625 -7.796875 C 10.820312 -7.796875 11.894531 -8.09375 12.625 -8.6875 C 13.351562 -9.289062 13.71875 -10.15625 13.71875 -11.28125 C 13.71875 -12.394531 13.351562 -13.25 12.625 -13.84375 C 11.894531 -14.445312 10.820312 -14.75 9.40625 -14.75 L 5.59375 -14.75 L 5.59375 -7.796875 Z M 9.40625 -7.796875 "/></g></g></g><g fill="#458217" fill-opacity="1"><g transform="translate(116.142818, 256.678987)"><g><path d="M 2.46875 -6.5 L 2.46875 -4.15625 L 6.1875 -4.15625 L 6.1875 -2.953125 L 2.46875 -2.953125 L 2.46875 0 L 1.03125 0 L 1.03125 -7.703125 L 6.65625 -7.703125 L 6.65625 -6.5 Z M 2.46875 -6.5 "/></g></g></g><g fill="#458217" fill-opacity="1"><g transform="translate(123.914879, 256.678987)"><g><path d="M 2.21875 -5.015625 C 2.613281 -5.628906 3.304688 -5.9375 4.296875 -5.9375 L 4.296875 -4.625 C 4.179688 -4.644531 4.078125 -4.65625 3.984375 -4.65625 C 3.441406 -4.65625 3.019531 -4.5 2.71875 -4.1875 C 2.425781 -3.882812 2.28125 -3.4375 2.28125 -2.84375 L 2.28125 0 L 0.90625 0 L 0.90625 -5.875 L 2.21875 -5.875 Z M 2.21875 -5.015625 "/></g></g></g><g fill="#458217" fill-opacity="1"><g transform="translate(129.301637, 256.678987)"><g><path d="M 6.421875 -2.90625 C 6.421875 -2.8125 6.414062 -2.675781 6.40625 -2.5 L 1.796875 -2.5 C 1.867188 -2.0625 2.078125 -1.71875 2.421875 -1.46875 C 2.765625 -1.21875 3.191406 -1.09375 3.703125 -1.09375 C 4.335938 -1.09375 4.867188 -1.304688 5.296875 -1.734375 L 6.03125 -0.875 C 5.757812 -0.5625 5.421875 -0.320312 5.015625 -0.15625 C 4.617188 0 4.164062 0.078125 3.65625 0.078125 C 3.007812 0.078125 2.441406 -0.046875 1.953125 -0.296875 C 1.460938 -0.554688 1.082031 -0.914062 0.8125 -1.375 C 0.550781 -1.832031 0.421875 -2.351562 0.421875 -2.9375 C 0.421875 -3.507812 0.550781 -4.023438 0.8125 -4.484375 C 1.070312 -4.941406 1.429688 -5.296875 1.890625 -5.546875 C 2.347656 -5.804688 2.867188 -5.9375 3.453125 -5.9375 C 4.023438 -5.9375 4.535156 -5.8125 4.984375 -5.5625 C 5.441406 -5.3125 5.796875 -4.957031 6.046875 -4.5 C 6.296875 -4.039062 6.421875 -3.507812 6.421875 -2.90625 Z M 3.453125 -4.84375 C 3.015625 -4.84375 2.640625 -4.710938 2.328125 -4.453125 C 2.023438 -4.191406 1.84375 -3.84375 1.78125 -3.40625 L 5.109375 -3.40625 C 5.054688 -3.832031 4.878906 -4.175781 4.578125 -4.4375 C 4.273438 -4.707031 3.898438 -4.84375 3.453125 -4.84375 Z M 3.453125 -4.84375 "/></g></g></g><g fill="#458217" fill-opacity="1"><g transform="translate(136.908823, 256.678987)"><g><path d="M 2.71875 0.078125 C 2.238281 0.078125 1.769531 0.015625 1.3125 -0.109375 C 0.863281 -0.234375 0.503906 -0.390625 0.234375 -0.578125 L 0.765625 -1.625 C 1.023438 -1.445312 1.335938 -1.304688 1.703125 -1.203125 C 2.078125 -1.097656 2.445312 -1.046875 2.8125 -1.046875 C 3.625 -1.046875 4.03125 -1.257812 4.03125 -1.6875 C 4.03125 -1.894531 3.925781 -2.039062 3.71875 -2.125 C 3.507812 -2.207031 3.175781 -2.285156 2.71875 -2.359375 C 2.226562 -2.429688 1.832031 -2.515625 1.53125 -2.609375 C 1.226562 -2.703125 0.960938 -2.867188 0.734375 -3.109375 C 0.515625 -3.347656 0.40625 -3.679688 0.40625 -4.109375 C 0.40625 -4.660156 0.632812 -5.101562 1.09375 -5.4375 C 1.5625 -5.769531 2.191406 -5.9375 2.984375 -5.9375 C 3.390625 -5.9375 3.796875 -5.890625 4.203125 -5.796875 C 4.609375 -5.710938 4.9375 -5.59375 5.1875 -5.4375 L 4.65625 -4.390625 C 4.164062 -4.679688 3.609375 -4.828125 2.984375 -4.828125 C 2.578125 -4.828125 2.269531 -4.765625 2.0625 -4.640625 C 1.851562 -4.523438 1.75 -4.367188 1.75 -4.171875 C 1.75 -3.953125 1.859375 -3.796875 2.078125 -3.703125 C 2.304688 -3.609375 2.65625 -3.519531 3.125 -3.4375 C 3.59375 -3.363281 3.976562 -3.28125 4.28125 -3.1875 C 4.582031 -3.09375 4.835938 -2.929688 5.046875 -2.703125 C 5.265625 -2.472656 5.375 -2.148438 5.375 -1.734375 C 5.375 -1.179688 5.132812 -0.738281 4.65625 -0.40625 C 4.1875 -0.0820312 3.539062 0.078125 2.71875 0.078125 Z M 2.71875 0.078125 "/></g></g></g><g fill="#458217" fill-opacity="1"><g transform="translate(143.339843, 256.678987)"><g><path d="M 4.234375 -5.9375 C 4.972656 -5.9375 5.566406 -5.71875 6.015625 -5.28125 C 6.460938 -4.851562 6.6875 -4.210938 6.6875 -3.359375 L 6.6875 0 L 5.3125 0 L 5.3125 -3.1875 C 5.3125 -3.695312 5.191406 -4.082031 4.953125 -4.34375 C 4.710938 -4.601562 4.367188 -4.734375 3.921875 -4.734375 C 3.410156 -4.734375 3.007812 -4.582031 2.71875 -4.28125 C 2.425781 -3.976562 2.28125 -3.539062 2.28125 -2.96875 L 2.28125 0 L 0.90625 0 L 0.90625 -8.15625 L 2.28125 -8.15625 L 2.28125 -5.1875 C 2.507812 -5.4375 2.789062 -5.625 3.125 -5.75 C 3.457031 -5.875 3.828125 -5.9375 4.234375 -5.9375 Z M 4.234375 -5.9375 "/></g></g></g><g fill="#458217" fill-opacity="1"><g transform="translate(151.639533, 256.678987)"><g/></g></g><g fill="#458217" fill-opacity="1"><g transform="translate(155.443403, 256.678987)"><g><path d="M 8.109375 0 L 8.09375 -5.109375 L 5.5625 -0.875 L 4.921875 -0.875 L 2.390625 -5.03125 L 2.390625 0 L 1.03125 0 L 1.03125 -7.703125 L 2.21875 -7.703125 L 5.265625 -2.59375 L 8.265625 -7.703125 L 9.453125 -7.703125 L 9.453125 0 Z M 8.109375 0 "/></g></g></g><g fill="#458217" fill-opacity="1"><g transform="translate(166.710995, 256.678987)"><g><path d="M 3.546875 0.078125 C 2.953125 0.078125 2.414062 -0.046875 1.9375 -0.296875 C 1.457031 -0.554688 1.082031 -0.914062 0.8125 -1.375 C 0.550781 -1.832031 0.421875 -2.351562 0.421875 -2.9375 C 0.421875 -3.519531 0.550781 -4.035156 0.8125 -4.484375 C 1.082031 -4.941406 1.457031 -5.296875 1.9375 -5.546875 C 2.414062 -5.804688 2.953125 -5.9375 3.546875 -5.9375 C 4.140625 -5.9375 4.675781 -5.804688 5.15625 -5.546875 C 5.632812 -5.296875 6.003906 -4.941406 6.265625 -4.484375 C 6.535156 -4.035156 6.671875 -3.519531 6.671875 -2.9375 C 6.671875 -2.351562 6.535156 -1.832031 6.265625 -1.375 C 6.003906 -0.914062 5.632812 -0.554688 5.15625 -0.296875 C 4.675781 -0.046875 4.140625 0.078125 3.546875 0.078125 Z M 3.546875 -1.09375 C 4.046875 -1.09375 4.460938 -1.257812 4.796875 -1.59375 C 5.128906 -1.9375 5.296875 -2.382812 5.296875 -2.9375 C 5.296875 -3.488281 5.128906 -3.929688 4.796875 -4.265625 C 4.460938 -4.609375 4.046875 -4.78125 3.546875 -4.78125 C 3.035156 -4.78125 2.613281 -4.609375 2.28125 -4.265625 C 1.957031 -3.929688 1.796875 -3.488281 1.796875 -2.9375 C 1.796875 -2.382812 1.957031 -1.9375 2.28125 -1.59375 C 2.613281 -1.257812 3.035156 -1.09375 3.546875 -1.09375 Z M 3.546875 -1.09375 "/></g></g></g><g fill="#458217" fill-opacity="1"><g transform="translate(174.571002, 256.678987)"><g><path d="M 6.59375 -5.875 L 6.59375 0 L 5.28125 0 L 5.28125 -0.75 C 5.0625 -0.488281 4.785156 -0.285156 4.453125 -0.140625 C 4.117188 0.00390625 3.765625 0.078125 3.390625 0.078125 C 2.609375 0.078125 1.988281 -0.140625 1.53125 -0.578125 C 1.082031 -1.015625 0.859375 -1.660156 0.859375 -2.515625 L 0.859375 -5.875 L 2.234375 -5.875 L 2.234375 -2.703125 C 2.234375 -2.171875 2.351562 -1.773438 2.59375 -1.515625 C 2.832031 -1.265625 3.171875 -1.140625 3.609375 -1.140625 C 4.097656 -1.140625 4.488281 -1.289062 4.78125 -1.59375 C 5.070312 -1.894531 5.21875 -2.332031 5.21875 -2.90625 L 5.21875 -5.875 Z M 6.59375 -5.875 "/></g></g></g><g fill="#458217" fill-opacity="1"><g transform="translate(182.826724, 256.678987)"><g><path d="M 4.234375 -5.9375 C 4.972656 -5.9375 5.566406 -5.71875 6.015625 -5.28125 C 6.460938 -4.851562 6.6875 -4.210938 6.6875 -3.359375 L 6.6875 0 L 5.3125 0 L 5.3125 -3.1875 C 5.3125 -3.695312 5.191406 -4.082031 4.953125 -4.34375 C 4.710938 -4.601562 4.367188 -4.734375 3.921875 -4.734375 C 3.410156 -4.734375 3.007812 -4.582031 2.71875 -4.28125 C 2.425781 -3.976562 2.28125 -3.539062 2.28125 -2.96875 L 2.28125 0 L 0.90625 0 L 0.90625 -5.875 L 2.21875 -5.875 L 2.21875 -5.109375 C 2.4375 -5.378906 2.71875 -5.582031 3.0625 -5.71875 C 3.414062 -5.863281 3.804688 -5.9375 4.234375 -5.9375 Z M 4.234375 -5.9375 "/></g></g></g><g fill="#458217" fill-opacity="1"><g transform="translate(191.126414, 256.678987)"><g><path d="M 4.4375 -0.3125 C 4.269531 -0.1875 4.070312 -0.0859375 3.84375 -0.015625 C 3.613281 0.046875 3.367188 0.078125 3.109375 0.078125 C 2.460938 0.078125 1.960938 -0.0859375 1.609375 -0.421875 C 1.265625 -0.765625 1.09375 -1.257812 1.09375 -1.90625 L 1.09375 -4.734375 L 0.125 -4.734375 L 0.125 -5.828125 L 1.09375 -5.828125 L 1.09375 -7.171875 L 2.46875 -7.171875 L 2.46875 -5.828125 L 4.03125 -5.828125 L 4.03125 -4.734375 L 2.46875 -4.734375 L 2.46875 -1.9375 C 2.46875 -1.644531 2.535156 -1.425781 2.671875 -1.28125 C 2.804688 -1.132812 3.007812 -1.0625 3.28125 -1.0625 C 3.582031 -1.0625 3.835938 -1.140625 4.046875 -1.296875 Z M 4.4375 -0.3125 "/></g></g></g><g fill="#458217" fill-opacity="1"><g transform="translate(196.557138, 256.678987)"><g><path d="M 3.140625 -5.9375 C 4.003906 -5.9375 4.664062 -5.726562 5.125 -5.3125 C 5.582031 -4.90625 5.8125 -4.28125 5.8125 -3.4375 L 5.8125 0 L 4.515625 0 L 4.515625 -0.71875 C 4.347656 -0.457031 4.109375 -0.257812 3.796875 -0.125 C 3.484375 0.0078125 3.109375 0.078125 2.671875 0.078125 C 2.234375 0.078125 1.847656 0.00390625 1.515625 -0.140625 C 1.179688 -0.296875 0.925781 -0.503906 0.75 -0.765625 C 0.570312 -1.035156 0.484375 -1.34375 0.484375 -1.6875 C 0.484375 -2.207031 0.675781 -2.628906 1.0625 -2.953125 C 1.457031 -3.273438 2.078125 -3.4375 2.921875 -3.4375 L 4.4375 -3.4375 L 4.4375 -3.515625 C 4.4375 -3.929688 4.3125 -4.25 4.0625 -4.46875 C 3.820312 -4.6875 3.460938 -4.796875 2.984375 -4.796875 C 2.648438 -4.796875 2.320312 -4.742188 2 -4.640625 C 1.6875 -4.535156 1.421875 -4.394531 1.203125 -4.21875 L 0.65625 -5.21875 C 0.96875 -5.445312 1.335938 -5.625 1.765625 -5.75 C 2.203125 -5.875 2.660156 -5.9375 3.140625 -5.9375 Z M 2.953125 -0.921875 C 3.296875 -0.921875 3.601562 -1 3.875 -1.15625 C 4.144531 -1.3125 4.332031 -1.539062 4.4375 -1.84375 L 4.4375 -2.515625 L 3.03125 -2.515625 C 2.238281 -2.515625 1.84375 -2.253906 1.84375 -1.734375 C 1.84375 -1.484375 1.941406 -1.285156 2.140625 -1.140625 C 2.335938 -0.992188 2.609375 -0.921875 2.953125 -0.921875 Z M 2.953125 -0.921875 "/></g></g></g><g fill="#458217" fill-opacity="1"><g transform="translate(203.999437, 256.678987)"><g><path d="M 0.90625 -5.875 L 2.28125 -5.875 L 2.28125 0 L 0.90625 0 Z M 1.59375 -6.84375 C 1.34375 -6.84375 1.128906 -6.921875 0.953125 -7.078125 C 0.785156 -7.234375 0.703125 -7.429688 0.703125 -7.671875 C 0.703125 -7.898438 0.785156 -8.09375 0.953125 -8.25 C 1.128906 -8.40625 1.34375 -8.484375 1.59375 -8.484375 C 1.84375 -8.484375 2.050781 -8.410156 2.21875 -8.265625 C 2.382812 -8.117188 2.46875 -7.929688 2.46875 -7.703125 C 2.46875 -7.460938 2.382812 -7.257812 2.21875 -7.09375 C 2.050781 -6.925781 1.84375 -6.84375 1.59375 -6.84375 Z M 1.59375 -6.84375 "/></g></g></g><g fill="#458217" fill-opacity="1"><g transform="translate(207.946206, 256.678987)"><g><path d="M 4.234375 -5.9375 C 4.972656 -5.9375 5.566406 -5.71875 6.015625 -5.28125 C 6.460938 -4.851562 6.6875 -4.210938 6.6875 -3.359375 L 6.6875 0 L 5.3125 0 L 5.3125 -3.1875 C 5.3125 -3.695312 5.191406 -4.082031 4.953125 -4.34375 C 4.710938 -4.601562 4.367188 -4.734375 3.921875 -4.734375 C 3.410156 -4.734375 3.007812 -4.582031 2.71875 -4.28125 C 2.425781 -3.976562 2.28125 -3.539062 2.28125 -2.96875 L 2.28125 0 L 0.90625 0 L 0.90625 -5.875 L 2.21875 -5.875 L 2.21875 -5.109375 C 2.4375 -5.378906 2.71875 -5.582031 3.0625 -5.71875 C 3.414062 -5.863281 3.804688 -5.9375 4.234375 -5.9375 Z M 4.234375 -5.9375 "/></g></g></g><g fill="#458217" fill-opacity="1"><g transform="translate(216.245896, 256.678987)"><g/></g></g><g fill="#458217" fill-opacity="1"><g transform="translate(220.049763, 256.678987)"><g><path d="M 6.484375 -4 C 6.910156 -3.863281 7.25 -3.628906 7.5 -3.296875 C 7.75 -2.972656 7.875 -2.570312 7.875 -2.09375 C 7.875 -1.425781 7.617188 -0.910156 7.109375 -0.546875 C 6.597656 -0.179688 5.847656 0 4.859375 0 L 1.03125 0 L 1.03125 -7.703125 L 4.640625 -7.703125 C 5.546875 -7.703125 6.242188 -7.523438 6.734375 -7.171875 C 7.234375 -6.816406 7.484375 -6.328125 7.484375 -5.703125 C 7.484375 -5.316406 7.394531 -4.976562 7.21875 -4.6875 C 7.039062 -4.394531 6.796875 -4.164062 6.484375 -4 Z M 2.46875 -6.578125 L 2.46875 -4.453125 L 4.484375 -4.453125 C 4.984375 -4.453125 5.363281 -4.539062 5.625 -4.71875 C 5.894531 -4.90625 6.03125 -5.171875 6.03125 -5.515625 C 6.03125 -5.859375 5.894531 -6.117188 5.625 -6.296875 C 5.363281 -6.484375 4.984375 -6.578125 4.484375 -6.578125 Z M 4.78125 -1.125 C 5.882812 -1.125 6.4375 -1.492188 6.4375 -2.234375 C 6.4375 -2.972656 5.882812 -3.34375 4.78125 -3.34375 L 2.46875 -3.34375 L 2.46875 -1.125 Z M 4.78125 -1.125 "/></g></g></g><g fill="#458217" fill-opacity="1"><g transform="translate(229.18486, 256.678987)"><g><path d="M 3.546875 0.078125 C 2.953125 0.078125 2.414062 -0.046875 1.9375 -0.296875 C 1.457031 -0.554688 1.082031 -0.914062 0.8125 -1.375 C 0.550781 -1.832031 0.421875 -2.351562 0.421875 -2.9375 C 0.421875 -3.519531 0.550781 -4.035156 0.8125 -4.484375 C 1.082031 -4.941406 1.457031 -5.296875 1.9375 -5.546875 C 2.414062 -5.804688 2.953125 -5.9375 3.546875 -5.9375 C 4.140625 -5.9375 4.675781 -5.804688 5.15625 -5.546875 C 5.632812 -5.296875 6.003906 -4.941406 6.265625 -4.484375 C 6.535156 -4.035156 6.671875 -3.519531 6.671875 -2.9375 C 6.671875 -2.351562 6.535156 -1.832031 6.265625 -1.375 C 6.003906 -0.914062 5.632812 -0.554688 5.15625 -0.296875 C 4.675781 -0.046875 4.140625 0.078125 3.546875 0.078125 Z M 3.546875 -1.09375 C 4.046875 -1.09375 4.460938 -1.257812 4.796875 -1.59375 C 5.128906 -1.9375 5.296875 -2.382812 5.296875 -2.9375 C 5.296875 -3.488281 5.128906 -3.929688 4.796875 -4.265625 C 4.460938 -4.609375 4.046875 -4.78125 3.546875 -4.78125 C 3.035156 -4.78125 2.613281 -4.609375 2.28125 -4.265625 C 1.957031 -3.929688 1.796875 -3.488281 1.796875 -2.9375 C 1.796875 -2.382812 1.957031 -1.9375 2.28125 -1.59375 C 2.613281 -1.257812 3.035156 -1.09375 3.546875 -1.09375 Z M 3.546875 -1.09375 "/></g></g></g><g fill="#458217" fill-opacity="1"><g transform="translate(237.044868, 256.678987)"><g><path d="M 3.546875 0.078125 C 2.953125 0.078125 2.414062 -0.046875 1.9375 -0.296875 C 1.457031 -0.554688 1.082031 -0.914062 0.8125 -1.375 C 0.550781 -1.832031 0.421875 -2.351562 0.421875 -2.9375 C 0.421875 -3.519531 0.550781 -4.035156 0.8125 -4.484375 C 1.082031 -4.941406 1.457031 -5.296875 1.9375 -5.546875 C 2.414062 -5.804688 2.953125 -5.9375 3.546875 -5.9375 C 4.140625 -5.9375 4.675781 -5.804688 5.15625 -5.546875 C 5.632812 -5.296875 6.003906 -4.941406 6.265625 -4.484375 C 6.535156 -4.035156 6.671875 -3.519531 6.671875 -2.9375 C 6.671875 -2.351562 6.535156 -1.832031 6.265625 -1.375 C 6.003906 -0.914062 5.632812 -0.554688 5.15625 -0.296875 C 4.675781 -0.046875 4.140625 0.078125 3.546875 0.078125 Z M 3.546875 -1.09375 C 4.046875 -1.09375 4.460938 -1.257812 4.796875 -1.59375 C 5.128906 -1.9375 5.296875 -2.382812 5.296875 -2.9375 C 5.296875 -3.488281 5.128906 -3.929688 4.796875 -4.265625 C 4.460938 -4.609375 4.046875 -4.78125 3.546875 -4.78125 C 3.035156 -4.78125 2.613281 -4.609375 2.28125 -4.265625 C 1.957031 -3.929688 1.796875 -3.488281 1.796875 -2.9375 C 1.796875 -2.382812 1.957031 -1.9375 2.28125 -1.59375 C 2.613281 -1.257812 3.035156 -1.09375 3.546875 -1.09375 Z M 3.546875 -1.09375 "/></g></g></g><g fill="#458217" fill-opacity="1"><g transform="translate(244.904875, 256.678987)"><g><path d="M 4.234375 -5.9375 C 4.972656 -5.9375 5.566406 -5.71875 6.015625 -5.28125 C 6.460938 -4.851562 6.6875 -4.210938 6.6875 -3.359375 L 6.6875 0 L 5.3125 0 L 5.3125 -3.1875 C 5.3125 -3.695312 5.191406 -4.082031 4.953125 -4.34375 C 4.710938 -4.601562 4.367188 -4.734375 3.921875 -4.734375 C 3.410156 -4.734375 3.007812 -4.582031 2.71875 -4.28125 C 2.425781 -3.976562 2.28125 -3.539062 2.28125 -2.96875 L 2.28125 0 L 0.90625 0 L 0.90625 -5.875 L 2.21875 -5.875 L 2.21875 -5.109375 C 2.4375 -5.378906 2.71875 -5.582031 3.0625 -5.71875 C 3.414062 -5.863281 3.804688 -5.9375 4.234375 -5.9375 Z M 4.234375 -5.9375 "/></g></g></g><g fill="#458217" fill-opacity="1"><g transform="translate(253.204565, 256.678987)"><g><path d="M 2.71875 0.078125 C 2.238281 0.078125 1.769531 0.015625 1.3125 -0.109375 C 0.863281 -0.234375 0.503906 -0.390625 0.234375 -0.578125 L 0.765625 -1.625 C 1.023438 -1.445312 1.335938 -1.304688 1.703125 -1.203125 C 2.078125 -1.097656 2.445312 -1.046875 2.8125 -1.046875 C 3.625 -1.046875 4.03125 -1.257812 4.03125 -1.6875 C 4.03125 -1.894531 3.925781 -2.039062 3.71875 -2.125 C 3.507812 -2.207031 3.175781 -2.285156 2.71875 -2.359375 C 2.226562 -2.429688 1.832031 -2.515625 1.53125 -2.609375 C 1.226562 -2.703125 0.960938 -2.867188 0.734375 -3.109375 C 0.515625 -3.347656 0.40625 -3.679688 0.40625 -4.109375 C 0.40625 -4.660156 0.632812 -5.101562 1.09375 -5.4375 C 1.5625 -5.769531 2.191406 -5.9375 2.984375 -5.9375 C 3.390625 -5.9375 3.796875 -5.890625 4.203125 -5.796875 C 4.609375 -5.710938 4.9375 -5.59375 5.1875 -5.4375 L 4.65625 -4.390625 C 4.164062 -4.679688 3.609375 -4.828125 2.984375 -4.828125 C 2.578125 -4.828125 2.269531 -4.765625 2.0625 -4.640625 C 1.851562 -4.523438 1.75 -4.367188 1.75 -4.171875 C 1.75 -3.953125 1.859375 -3.796875 2.078125 -3.703125 C 2.304688 -3.609375 2.65625 -3.519531 3.125 -3.4375 C 3.59375 -3.363281 3.976562 -3.28125 4.28125 -3.1875 C 4.582031 -3.09375 4.835938 -2.929688 5.046875 -2.703125 C 5.265625 -2.472656 5.375 -2.148438 5.375 -1.734375 C 5.375 -1.179688 5.132812 -0.738281 4.65625 -0.40625 C 4.1875 -0.0820312 3.539062 0.078125 2.71875 0.078125 Z M 2.71875 0.078125 "/></g></g></g></svg>