<svg xmlns="http://www.w3.org/2000/svg" xmlns:xlink="http://www.w3.org/1999/xlink" width="500" zoomAndPan="magnify" viewBox="0 0 375 374.999991" height="500" preserveAspectRatio="xMidYMid meet" version="1.0"><defs><g/><clipPath id="c2974bc762"><path d="M 104 109 L 289 109 L 289 231.054688 L 104 231.054688 Z M 104 109 " clip-rule="nonzero"/></clipPath><clipPath id="fccf45bb08"><path d="M 74 80.128906 L 302 80.128906 L 302 164 L 74 164 Z M 74 80.128906 " clip-rule="nonzero"/></clipPath></defs><g clip-path="url(#c2974bc762)"><path fill="#f7892d" d="M 194.265625 109.113281 C 193.632812 109.171875 192.878906 112.660156 194.957031 118.816406 C 195.738281 121.132812 197.035156 123.804688 199.171875 126.417969 C 200.828125 128.402344 202.9375 130.296875 205.496094 131.917969 C 207.785156 133.359375 210.375 134.53125 213.203125 135.433594 C 218.472656 137.117188 224.257812 137.867188 230.609375 137.867188 C 236.089844 137.867188 241.8125 137.328125 247.804688 136.304688 C 252.921875 135.464844 258.675781 135.945312 263.671875 138.378906 C 267.859375 140.363281 271.683594 143.695312 274.273438 147.875 C 276.589844 151.660156 278.007812 156.226562 277.734375 160.644531 C 277.554688 165 275.535156 169.535156 272.34375 172.960938 C 268.851562 176.746094 264.09375 179.601562 258.824219 181.34375 C 253.433594 183.148438 247.472656 183.808594 241.179688 184.078125 C 240.515625 184.109375 239.855469 184.109375 239.191406 184.140625 C 233.257812 184.257812 227.117188 183.929688 221.09375 183.660156 C 214.289062 183.296875 207.664062 182.9375 200.796875 183.148438 C 198.390625 183.207031 196.070312 182.96875 193.992188 182.277344 C 192.097656 181.675781 190.289062 180.683594 188.695312 179.453125 C 185.171875 176.839844 182.519531 172.660156 180.230469 168.335938 C 177.644531 163.347656 175.65625 157.789062 173.789062 152.46875 C 171.832031 146.882812 170.113281 141.683594 167.675781 136.367188 C 164.574219 129.542969 160.417969 123.6875 155.359375 119.179688 C 150.390625 114.820312 144.789062 112.117188 139.492188 110.707031 C 132.957031 108.992188 126.8125 109.023438 122.054688 109.5625 C 110.371094 110.824219 104.5625 114.039062 104.800781 114.851562 C 105.011719 115.664062 111.367188 114.070312 122.296875 114.28125 C 126.691406 114.371094 132.265625 114.882812 137.625 116.835938 C 141.960938 118.398438 146.445312 120.980469 150.210938 124.765625 C 154.15625 128.671875 157.285156 133.78125 159.785156 139.851562 C 161.773438 144.71875 163.160156 149.644531 164.964844 155.476562 C 166.652344 160.914062 168.609375 166.921875 171.410156 172.78125 C 173.789062 177.917969 177.191406 183.269531 182.339844 187.535156 C 184.777344 189.519531 187.609375 191.140625 190.742188 192.191406 C 194.144531 193.332031 197.667969 193.8125 201.128906 193.722656 C 207.421875 193.605469 213.746094 194.023438 220.613281 194.414062 C 226.636719 194.777344 233.019531 195.105469 239.460938 194.984375 C 240.183594 194.984375 240.90625 194.957031 241.628906 194.925781 C 248.527344 194.714844 255.511719 193.8125 262.289062 191.589844 C 269.121094 189.308594 275.355469 185.402344 280.175781 180.144531 C 284.960938 174.855469 287.761719 168.0625 288.003906 161.125 C 288.183594 154.304688 286.074219 147.875 282.582031 142.644531 C 278.757812 136.875 273.429688 132.578125 267.527344 130.027344 C 260.421875 126.992188 252.863281 126.660156 246.238281 128.101562 C 240.667969 129.335938 235.457031 130.144531 230.460938 130.445312 C 224.617188 130.777344 219.589844 130.535156 214.953125 129.453125 C 212.480469 128.882812 210.253906 128.101562 208.265625 127.140625 C 206.039062 126.058594 204.171875 124.738281 202.636719 123.296875 C 200.648438 121.433594 199.203125 119.328125 198.148438 117.496094 C 195.4375 112.539062 194.867188 109.144531 194.265625 109.113281 Z M 197.246094 196.429688 C 187.667969 196.429688 179.902344 204.179688 179.902344 213.734375 C 179.902344 223.289062 187.667969 231.042969 197.246094 231.042969 C 206.820312 231.042969 214.589844 223.289062 214.589844 213.734375 C 214.589844 204.179688 206.820312 196.429688 197.246094 196.429688 Z M 265.390625 196.429688 C 255.8125 196.429688 248.042969 204.179688 248.042969 213.734375 C 248.042969 223.289062 255.8125 231.042969 265.390625 231.042969 C 274.964844 231.042969 282.734375 223.289062 282.734375 213.734375 C 282.734375 204.179688 274.964844 196.429688 265.390625 196.429688 Z M 197.214844 205.414062 C 201.851562 205.414062 205.617188 209.136719 205.617188 213.765625 C 205.617188 218.363281 201.882812 222.117188 197.246094 222.117188 C 192.636719 222.117188 188.875 218.390625 188.875 213.765625 C 188.875 209.167969 192.609375 205.414062 197.214844 205.414062 Z M 265.359375 205.414062 C 269.996094 205.414062 273.761719 209.136719 273.761719 213.765625 C 273.761719 218.363281 270.027344 222.117188 265.390625 222.117188 C 260.78125 222.117188 257.019531 218.390625 257.019531 213.765625 C 257.019531 209.167969 260.75 205.414062 265.359375 205.414062 Z M 265.359375 205.414062 " fill-opacity="1" fill-rule="nonzero"/></g><g clip-path="url(#fccf45bb08)"><path fill="#458217" d="M 134.644531 80.117188 C 134.191406 80.117188 133.769531 80.148438 133.316406 80.179688 C 129.164062 86.335938 128.890625 94.332031 132.59375 100.761719 C 136.089844 106.769531 142.5 110.464844 149.457031 110.496094 C 149.035156 109.804688 148.613281 109.082031 148.191406 108.332031 C 143.375 99.980469 139.914062 92.949219 140.484375 92.617188 C 141.054688 92.285156 145.453125 98.777344 150.269531 107.128906 C 150.691406 107.851562 151.113281 108.570312 151.503906 109.292969 C 154.96875 103.285156 154.96875 95.863281 151.503906 89.851562 C 148.042969 83.8125 141.597656 80.117188 134.644531 80.117188 Z M 105.253906 83.273438 C 104.980469 83.273438 104.742188 83.273438 104.5 83.304688 C 100.917969 88.351562 100.554688 95.019531 103.535156 100.429688 C 106.335938 105.507812 111.636719 108.691406 117.417969 108.8125 C 117.085938 108.210938 116.757812 107.609375 116.394531 107.007812 C 112.511719 99.980469 109.769531 94.03125 110.25 93.789062 C 110.734375 93.519531 114.285156 99.015625 118.140625 106.046875 C 118.472656 106.679688 118.804688 107.28125 119.136719 107.882812 C 122.144531 102.921875 122.265625 96.765625 119.464844 91.6875 C 116.636719 86.488281 111.183594 83.273438 105.253906 83.273438 Z M 189.355469 88.261719 C 186.34375 90.996094 185.140625 95.203125 186.285156 99.109375 C 187.339844 102.773438 190.289062 105.566406 193.964844 106.5 C 193.84375 106.078125 193.691406 105.628906 193.570312 105.175781 C 192.097656 100.097656 191.191406 95.890625 191.554688 95.800781 C 191.914062 95.710938 193.390625 99.738281 194.867188 104.816406 C 194.988281 105.265625 195.109375 105.6875 195.226562 106.136719 C 197.878906 103.402344 198.839844 99.46875 197.789062 95.800781 C 196.644531 91.894531 193.359375 88.953125 189.355469 88.261719 Z M 224.828125 96.28125 C 224.375 96.28125 223.953125 96.3125 223.503906 96.34375 C 219.347656 102.503906 219.078125 110.496094 222.78125 116.925781 C 226.273438 122.933594 232.6875 126.628906 239.644531 126.660156 C 239.222656 125.96875 238.800781 125.246094 238.378906 124.496094 C 233.5625 116.144531 230.097656 109.113281 230.667969 108.78125 C 231.242188 108.453125 235.636719 114.941406 240.457031 123.296875 C 240.878906 124.015625 241.300781 124.738281 241.691406 125.457031 C 245.152344 119.449219 245.152344 112.027344 241.691406 106.019531 C 238.257812 99.980469 231.8125 96.28125 224.828125 96.28125 Z M 176.648438 98.566406 C 170.898438 98.566406 165.597656 101.601562 162.675781 106.558594 C 159.726562 111.546875 159.664062 117.707031 162.527344 122.753906 C 162.859375 122.152344 163.21875 121.550781 163.582031 120.953125 C 167.675781 114.039062 171.378906 108.632812 171.859375 108.933594 C 172.34375 109.203125 169.421875 115.0625 165.328125 121.972656 C 164.964844 122.574219 164.605469 123.175781 164.273438 123.746094 C 170.085938 123.804688 175.445312 120.742188 178.394531 115.753906 C 181.558594 110.433594 181.375 103.765625 177.945312 98.597656 C 177.523438 98.566406 177.101562 98.566406 176.648438 98.566406 Z M 205.253906 103.253906 C 202.242188 105.988281 201.039062 110.195312 202.183594 114.101562 C 203.238281 117.765625 206.1875 120.5625 209.863281 121.492188 C 209.742188 121.070312 209.589844 120.621094 209.472656 120.171875 C 207.996094 115.09375 207.09375 110.886719 207.453125 110.796875 C 207.816406 110.707031 209.289062 114.730469 210.765625 119.808594 C 210.886719 120.261719 211.007812 120.679688 211.128906 121.132812 C 213.777344 118.398438 214.742188 114.460938 213.6875 110.796875 C 212.542969 106.890625 209.261719 103.976562 205.253906 103.253906 Z M 278.878906 105.265625 C 274.300781 109.445312 272.527344 115.875 274.273438 121.792969 C 275.929688 127.351562 280.414062 131.585938 286.046875 132.941406 C 285.835938 132.277344 285.65625 131.617188 285.445312 130.957031 C 283.15625 123.265625 281.738281 116.863281 282.28125 116.714844 C 282.824219 116.566406 285.082031 122.695312 287.371094 130.386719 C 287.582031 131.078125 287.761719 131.738281 287.941406 132.367188 C 291.949219 128.164062 293.394531 122.183594 291.738281 116.625 C 289.992188 110.707031 284.992188 106.289062 278.878906 105.265625 Z M 93.75 107.308594 C 89.503906 107.308594 85.378906 108.691406 82.007812 111.214844 C 76.074219 115.691406 73.183594 123.144531 74.597656 130.445312 C 81.222656 133.8125 89.203125 133.121094 95.164062 128.644531 C 100.738281 124.46875 103.628906 117.644531 102.785156 110.765625 C 102.152344 111.277344 101.460938 111.757812 100.796875 112.269531 C 93.089844 118.066406 86.492188 122.332031 86.101562 121.824219 C 85.710938 121.28125 91.644531 116.144531 99.351562 110.34375 C 100.042969 109.835938 100.707031 109.324219 101.367188 108.84375 C 98.960938 107.820312 96.371094 107.308594 93.75 107.308594 Z M 256.507812 109.445312 C 256.175781 109.445312 255.84375 109.472656 255.511719 109.503906 C 253.34375 112.957031 253.3125 117.316406 255.453125 120.769531 C 257.46875 124.015625 261.023438 125.9375 264.847656 125.820312 C 264.605469 125.429688 264.363281 125.066406 264.125 124.648438 C 261.355469 120.140625 259.335938 116.355469 259.636719 116.175781 C 259.9375 115.992188 262.46875 119.480469 265.238281 123.957031 C 265.480469 124.347656 265.71875 124.738281 265.960938 125.128906 C 267.769531 121.792969 267.648438 117.707031 265.628906 114.492188 C 263.703125 111.335938 260.210938 109.414062 256.507812 109.445312 Z M 125.007812 118.609375 C 120.882812 118.609375 116.90625 120.261719 113.984375 123.175781 C 109.769531 127.382812 108.324219 133.632812 110.25 139.28125 C 115.914062 141.203125 122.144531 139.761719 126.390625 135.554688 C 130.335938 131.617188 131.871094 125.878906 130.425781 120.5 C 129.976562 120.980469 129.492188 121.433594 129.011719 121.914062 C 123.53125 127.382812 118.773438 131.496094 118.414062 131.136719 C 118.019531 130.746094 122.175781 126.027344 127.65625 120.5625 C 128.136719 120.078125 128.621094 119.597656 129.070312 119.148438 C 127.746094 118.789062 126.390625 118.609375 125.007812 118.609375 Z M 181.40625 126.089844 C 177.339844 126.390625 173.789062 128.945312 172.253906 132.730469 C 170.835938 136.246094 171.378906 140.269531 173.726562 143.277344 C 173.878906 142.855469 174.058594 142.433594 174.238281 142.015625 C 176.226562 137.117188 178.09375 133.269531 178.457031 133.390625 C 178.785156 133.539062 177.460938 137.597656 175.472656 142.496094 C 175.292969 142.914062 175.113281 143.335938 174.960938 143.757812 C 178.726562 143.214844 181.949219 140.722656 183.363281 137.207031 C 184.898438 133.449219 184.148438 129.125 181.40625 126.089844 Z M 143.375 127.109375 C 140.9375 127.109375 138.558594 127.980469 136.660156 129.515625 C 136.75 133.570312 139.160156 137.238281 142.894531 138.949219 C 146.355469 140.542969 150.421875 140.152344 153.523438 137.957031 C 153.101562 137.777344 152.710938 137.597656 152.289062 137.386719 C 147.46875 135.195312 143.707031 133.121094 143.855469 132.789062 C 144.007812 132.460938 148.042969 133.992188 152.832031 136.183594 C 153.25 136.367188 153.671875 136.574219 154.066406 136.753906 C 153.703125 132.96875 151.355469 129.664062 147.890625 128.074219 C 146.445312 127.441406 144.910156 127.109375 143.375 127.109375 Z M 195.378906 130.324219 C 194.867188 130.324219 194.324219 130.355469 193.8125 130.445312 C 189.777344 131.046875 186.433594 133.871094 185.199219 137.746094 C 187.488281 141.113281 191.523438 142.855469 195.558594 142.285156 C 199.324219 141.742188 202.515625 139.21875 203.929688 135.675781 C 203.480469 135.734375 203.027344 135.824219 202.574219 135.882812 C 197.335938 136.636719 193.058594 136.964844 193 136.605469 C 192.941406 136.246094 197.15625 135.34375 202.394531 134.5625 C 202.847656 134.503906 203.296875 134.441406 203.75 134.382812 C 201.730469 131.796875 198.628906 130.324219 195.378906 130.324219 Z M 298.8125 134.171875 C 294.75 134.472656 291.195312 137.027344 289.660156 140.8125 C 288.242188 144.328125 288.785156 148.355469 291.136719 151.359375 C 291.285156 150.9375 291.464844 150.515625 291.648438 150.097656 C 293.632812 145.199219 295.5 141.351562 295.863281 141.472656 C 296.195312 141.625 294.867188 145.679688 292.882812 150.578125 C 292.699219 150.996094 292.519531 151.417969 292.371094 151.839844 C 296.132812 151.296875 299.355469 148.804688 300.769531 145.289062 C 302.304688 141.503906 301.523438 137.207031 298.8125 134.171875 Z M 217.542969 139.398438 C 213.414062 139.398438 209.441406 141.050781 206.519531 143.96875 C 202.304688 148.171875 200.859375 154.421875 202.785156 160.070312 C 208.445312 161.996094 214.679688 160.554688 218.925781 156.347656 C 222.871094 152.410156 224.40625 146.671875 222.960938 141.292969 C 222.507812 141.773438 222.027344 142.222656 221.546875 142.703125 C 216.066406 148.171875 211.308594 152.289062 210.945312 151.929688 C 210.554688 151.539062 214.710938 146.820312 220.191406 141.351562 C 220.671875 140.871094 221.15625 140.390625 221.605469 139.941406 C 220.28125 139.582031 218.894531 139.398438 217.542969 139.398438 Z M 240.003906 141.261719 C 236.242188 141.261719 232.777344 143.246094 230.851562 146.429688 C 228.742188 149.917969 228.832031 154.304688 231.0625 157.699219 C 235.125 158.027344 239.039062 156.046875 241.117188 152.558594 C 243.074219 149.285156 243.136719 145.230469 241.300781 141.925781 C 241.058594 142.316406 240.847656 142.703125 240.605469 143.09375 C 237.898438 147.632812 235.425781 151.148438 235.125 150.96875 C 234.824219 150.789062 236.753906 146.941406 239.492188 142.433594 C 239.734375 142.042969 239.972656 141.652344 240.214844 141.261719 C 240.125 141.261719 240.066406 141.261719 240.003906 141.261719 Z M 260.601562 142.285156 C 256.476562 142.285156 252.5 143.9375 249.582031 146.851562 C 245.363281 151.058594 243.917969 157.308594 245.847656 162.957031 C 251.507812 164.878906 257.742188 163.4375 261.988281 159.230469 C 265.929688 155.292969 267.464844 149.554688 266.019531 144.175781 C 265.570312 144.65625 265.089844 145.109375 264.605469 145.589844 C 259.125 151.058594 254.367188 155.175781 254.007812 154.8125 C 253.613281 154.421875 257.769531 149.707031 263.25 144.238281 C 263.734375 143.757812 264.214844 143.277344 264.667969 142.824219 C 263.371094 142.464844 261.988281 142.285156 260.601562 142.285156 Z M 260.601562 142.285156 " fill-opacity="1" fill-rule="nonzero"/></g><g fill="#f7892d" fill-opacity="1"><g transform="translate(68.842141, 264.101349)"><g><path d="M 22.328125 -26.078125 L 29.140625 -26.078125 C 29.410156 -26.078125 29.644531 -25.976562 29.84375 -25.78125 C 30.039062 -25.582031 30.140625 -25.347656 30.140625 -25.078125 L 30.140625 -1 C 30.140625 -0.726562 30.039062 -0.492188 29.84375 -0.296875 C 29.644531 -0.0976562 29.410156 0 29.140625 0 L 22.390625 0 C 22.117188 0 21.882812 -0.0976562 21.6875 -0.296875 C 21.488281 -0.492188 21.390625 -0.726562 21.390625 -1 L 21.390625 -12.5625 L 18.671875 -7.1875 C 18.523438 -6.894531 18.300781 -6.664062 18 -6.5 C 17.695312 -6.34375 17.398438 -6.265625 17.109375 -6.265625 L 14.578125 -6.265625 C 14.148438 -6.265625 13.800781 -6.375 13.53125 -6.59375 C 13.257812 -6.820312 13.082031 -7.019531 13 -7.1875 L 10.28125 -12.5625 L 10.28125 -1 C 10.28125 -0.726562 10.179688 -0.492188 9.984375 -0.296875 C 9.785156 -0.0976562 9.550781 0 9.28125 0 L 2.53125 0 C 2.257812 0 2.023438 -0.0976562 1.828125 -0.296875 C 1.628906 -0.492188 1.53125 -0.726562 1.53125 -1 L 1.53125 -25.078125 C 1.53125 -25.347656 1.628906 -25.582031 1.828125 -25.78125 C 2.023438 -25.976562 2.257812 -26.078125 2.53125 -26.078125 L 9.359375 -26.078125 C 10.046875 -26.078125 10.578125 -25.742188 10.953125 -25.078125 L 15.84375 -16.140625 L 20.71875 -25.078125 C 21.09375 -25.742188 21.628906 -26.078125 22.328125 -26.078125 Z M 22.328125 -26.078125 "/></g></g></g><g fill="#f7892d" fill-opacity="1"><g transform="translate(103.116516, 264.101349)"><g><path d="M 29.703125 -15.3125 L 29.703125 -10.765625 C 29.703125 -8.210938 29.078125 -6.078125 27.828125 -4.359375 C 26.585938 -2.640625 24.960938 -1.421875 22.953125 -0.703125 C 20.941406 0.015625 18.566406 0.375 15.828125 0.375 C 13.097656 0.375 10.726562 0.015625 8.71875 -0.703125 C 6.707031 -1.421875 5.078125 -2.640625 3.828125 -4.359375 C 2.585938 -6.078125 1.96875 -8.238281 1.96875 -10.84375 L 1.96875 -15.234375 C 1.96875 -18.992188 3.253906 -21.800781 5.828125 -23.65625 C 8.398438 -25.519531 11.734375 -26.453125 15.828125 -26.453125 C 19.929688 -26.453125 23.269531 -25.519531 25.84375 -23.65625 C 28.414062 -21.800781 29.703125 -19.019531 29.703125 -15.3125 Z M 12.03125 -16.03125 L 12.03125 -10.0625 C 12.03125 -9.039062 12.375 -8.253906 13.0625 -7.703125 C 13.75 -7.160156 14.675781 -6.890625 15.84375 -6.890625 C 17.007812 -6.890625 17.929688 -7.171875 18.609375 -7.734375 C 19.296875 -8.296875 19.640625 -9.082031 19.640625 -10.09375 L 19.640625 -15.984375 C 19.640625 -17.003906 19.296875 -17.789062 18.609375 -18.34375 C 17.929688 -18.90625 17.007812 -19.1875 15.84375 -19.1875 C 14.675781 -19.1875 13.75 -18.910156 13.0625 -18.359375 C 12.375 -17.816406 12.03125 -17.039062 12.03125 -16.03125 Z M 12.03125 -16.03125 "/></g></g></g><g fill="#f7892d" fill-opacity="1"><g transform="translate(137.39089, 264.101349)"><g><path d="M 20.578125 -26.078125 L 27.5 -26.078125 C 27.769531 -26.078125 28.003906 -25.976562 28.203125 -25.78125 C 28.410156 -25.582031 28.515625 -25.347656 28.515625 -25.078125 L 28.515625 -1 C 28.515625 -0.726562 28.410156 -0.492188 28.203125 -0.296875 C 28.003906 -0.0976562 27.769531 0 27.5 0 L 21.5 0 C 20.90625 0 20.410156 -0.257812 20.015625 -0.78125 L 11.890625 -11.140625 L 11.890625 -1 C 11.890625 -0.726562 11.789062 -0.492188 11.59375 -0.296875 C 11.394531 -0.0976562 11.15625 0 10.875 0 L 3.953125 0 C 3.679688 0 3.441406 -0.0976562 3.234375 -0.296875 C 3.035156 -0.492188 2.9375 -0.726562 2.9375 -1 L 2.9375 -25.078125 C 2.9375 -25.347656 3.035156 -25.582031 3.234375 -25.78125 C 3.441406 -25.976562 3.679688 -26.078125 3.953125 -26.078125 L 9.984375 -26.078125 C 10.578125 -26.078125 11.0625 -25.832031 11.4375 -25.34375 L 19.5625 -14.125 L 19.5625 -25.078125 C 19.5625 -25.347656 19.660156 -25.582031 19.859375 -25.78125 C 20.054688 -25.976562 20.296875 -26.078125 20.578125 -26.078125 Z M 20.578125 -26.078125 "/></g></g></g><g fill="#f7892d" fill-opacity="1"><g transform="translate(171.665262, 264.101349)"><g><path d="M 25.765625 -2.34375 C 23.316406 -0.53125 20.003906 0.375 15.828125 0.375 C 11.660156 0.375 8.351562 -0.53125 5.90625 -2.34375 C 3.457031 -4.15625 2.234375 -6.988281 2.234375 -10.84375 L 2.234375 -25.078125 C 2.234375 -25.347656 2.332031 -25.582031 2.53125 -25.78125 C 2.726562 -25.976562 2.960938 -26.078125 3.234375 -26.078125 L 11.03125 -26.078125 C 11.300781 -26.078125 11.535156 -25.976562 11.734375 -25.78125 C 11.929688 -25.582031 12.03125 -25.347656 12.03125 -25.078125 L 12.03125 -10.25 C 12.03125 -9.226562 12.375 -8.441406 13.0625 -7.890625 C 13.75 -7.347656 14.675781 -7.078125 15.84375 -7.078125 C 17.007812 -7.078125 17.929688 -7.347656 18.609375 -7.890625 C 19.296875 -8.441406 19.640625 -9.226562 19.640625 -10.25 L 19.640625 -25.078125 C 19.640625 -25.347656 19.738281 -25.582031 19.9375 -25.78125 C 20.132812 -25.976562 20.367188 -26.078125 20.640625 -26.078125 L 28.4375 -26.078125 C 28.707031 -26.078125 28.941406 -25.976562 29.140625 -25.78125 C 29.335938 -25.582031 29.4375 -25.347656 29.4375 -25.078125 L 29.4375 -10.84375 C 29.4375 -6.988281 28.210938 -4.15625 25.765625 -2.34375 Z M 25.765625 -2.34375 "/></g></g></g><g fill="#f7892d" fill-opacity="1"><g transform="translate(205.939639, 264.101349)"><g><path d="M 20.578125 -26.078125 L 27.5 -26.078125 C 27.769531 -26.078125 28.003906 -25.976562 28.203125 -25.78125 C 28.410156 -25.582031 28.515625 -25.347656 28.515625 -25.078125 L 28.515625 -1 C 28.515625 -0.726562 28.410156 -0.492188 28.203125 -0.296875 C 28.003906 -0.0976562 27.769531 0 27.5 0 L 21.5 0 C 20.90625 0 20.410156 -0.257812 20.015625 -0.78125 L 11.890625 -11.140625 L 11.890625 -1 C 11.890625 -0.726562 11.789062 -0.492188 11.59375 -0.296875 C 11.394531 -0.0976562 11.15625 0 10.875 0 L 3.953125 0 C 3.679688 0 3.441406 -0.0976562 3.234375 -0.296875 C 3.035156 -0.492188 2.9375 -0.726562 2.9375 -1 L 2.9375 -25.078125 C 2.9375 -25.347656 3.035156 -25.582031 3.234375 -25.78125 C 3.441406 -25.976562 3.679688 -26.078125 3.953125 -26.078125 L 9.984375 -26.078125 C 10.578125 -26.078125 11.0625 -25.832031 11.4375 -25.34375 L 19.5625 -14.125 L 19.5625 -25.078125 C 19.5625 -25.347656 19.660156 -25.582031 19.859375 -25.78125 C 20.054688 -25.976562 20.296875 -26.078125 20.578125 -26.078125 Z M 20.578125 -26.078125 "/></g></g></g><g fill="#f7892d" fill-opacity="1"><g transform="translate(240.214017, 264.101349)"><g><path d="M 13.046875 -7.265625 L 27.90625 -7.265625 C 28.1875 -7.265625 28.425781 -7.164062 28.625 -6.96875 C 28.820312 -6.769531 28.921875 -6.535156 28.921875 -6.265625 L 28.921875 -1 C 28.921875 -0.726562 28.820312 -0.492188 28.625 -0.296875 C 28.425781 -0.0976562 28.1875 0 27.90625 0 L 4.359375 0 C 4.085938 0 3.851562 -0.0976562 3.65625 -0.296875 C 3.457031 -0.492188 3.359375 -0.726562 3.359375 -1 L 3.359375 -25.078125 C 3.359375 -25.347656 3.457031 -25.582031 3.65625 -25.78125 C 3.851562 -25.976562 4.085938 -26.078125 4.359375 -26.078125 L 27.546875 -26.078125 C 27.816406 -26.078125 28.050781 -25.976562 28.25 -25.78125 C 28.445312 -25.582031 28.546875 -25.347656 28.546875 -25.078125 L 28.546875 -19.828125 C 28.546875 -19.554688 28.445312 -19.316406 28.25 -19.109375 C 28.050781 -18.910156 27.816406 -18.8125 27.546875 -18.8125 L 13.046875 -18.8125 L 13.046875 -16.46875 L 25.484375 -16.46875 C 25.765625 -16.46875 26.003906 -16.367188 26.203125 -16.171875 C 26.398438 -15.972656 26.5 -15.738281 26.5 -15.46875 L 26.5 -10.625 C 26.5 -10.34375 26.398438 -10.101562 26.203125 -9.90625 C 26.003906 -9.707031 25.765625 -9.609375 25.484375 -9.609375 L 13.046875 -9.609375 Z M 13.046875 -7.265625 "/></g></g></g><g fill="#f7892d" fill-opacity="1"><g transform="translate(274.488383, 264.101349)"><g><path d="M 20.578125 -26.078125 L 28.25 -26.078125 C 28.519531 -26.078125 28.753906 -25.976562 28.953125 -25.78125 C 29.148438 -25.582031 29.25 -25.347656 29.25 -25.078125 L 29.25 -1 C 29.25 -0.726562 29.148438 -0.492188 28.953125 -0.296875 C 28.753906 -0.0976562 28.519531 0 28.25 0 L 20.578125 0 C 20.296875 0 20.054688 -0.0976562 19.859375 -0.296875 C 19.660156 -0.492188 19.5625 -0.726562 19.5625 -1 L 19.5625 -8.9375 L 12.109375 -8.9375 L 12.109375 -1 C 12.109375 -0.726562 12.007812 -0.492188 11.8125 -0.296875 C 11.613281 -0.0976562 11.378906 0 11.109375 0 L 3.421875 0 C 3.148438 0 2.914062 -0.09375 2.71875 -0.28125 C 2.519531 -0.46875 2.421875 -0.707031 2.421875 -1 L 2.421875 -25.078125 C 2.421875 -25.347656 2.519531 -25.582031 2.71875 -25.78125 C 2.914062 -25.976562 3.148438 -26.078125 3.421875 -26.078125 L 11.109375 -26.078125 C 11.378906 -26.078125 11.613281 -25.976562 11.8125 -25.78125 C 12.007812 -25.582031 12.109375 -25.347656 12.109375 -25.078125 L 12.109375 -17.4375 L 19.5625 -17.4375 L 19.5625 -25.078125 C 19.5625 -25.347656 19.660156 -25.582031 19.859375 -25.78125 C 20.054688 -25.976562 20.296875 -26.078125 20.578125 -26.078125 Z M 20.578125 -26.078125 "/></g></g></g></svg>