<svg xmlns="http://www.w3.org/2000/svg" xmlns:xlink="http://www.w3.org/1999/xlink" width="500" zoomAndPan="magnify" viewBox="0 0 375 374.999991" height="500" preserveAspectRatio="xMidYMid meet" version="1.0"><defs><g/><clipPath id="f0fd08c8e9"><path d="M 97 102 L 297 102 L 297 234.625 L 97 234.625 Z M 97 102 " clip-rule="nonzero"/></clipPath><clipPath id="a3f7e5489e"><path d="M 64 70.714844 L 312 70.714844 L 312 162 L 64 162 Z M 64 70.714844 " clip-rule="nonzero"/></clipPath></defs><g clip-path="url(#f0fd08c8e9)"><path fill="#f7892d" d="M 194.847656 102.191406 C 194.160156 102.257812 193.34375 106.042969 195.597656 112.730469 C 196.449219 115.246094 197.855469 118.148438 200.175781 120.988281 C 201.976562 123.140625 204.265625 125.199219 207.042969 126.960938 C 209.53125 128.527344 212.34375 129.796875 215.417969 130.777344 C 221.140625 132.605469 227.417969 133.421875 234.320312 133.421875 C 240.269531 133.421875 246.484375 132.832031 252.992188 131.722656 C 258.550781 130.808594 264.796875 131.332031 270.226562 133.976562 C 274.773438 136.128906 278.925781 139.75 281.738281 144.289062 C 284.257812 148.398438 285.792969 153.359375 285.5 158.15625 C 285.304688 162.886719 283.113281 167.816406 279.644531 171.535156 C 275.851562 175.648438 270.683594 178.746094 264.960938 180.640625 C 259.109375 182.597656 252.632812 183.316406 245.796875 183.609375 C 245.078125 183.640625 244.359375 183.640625 243.640625 183.675781 C 237.195312 183.804688 230.527344 183.445312 223.984375 183.152344 C 216.59375 182.761719 209.398438 182.367188 201.941406 182.597656 C 199.328125 182.664062 196.808594 182.402344 194.550781 181.652344 C 192.492188 181 190.53125 179.921875 188.796875 178.582031 C 184.96875 175.746094 182.09375 171.207031 179.605469 166.507812 C 176.792969 161.09375 174.636719 155.054688 172.609375 149.28125 C 170.484375 143.210938 168.617188 137.566406 165.96875 131.789062 C 162.601562 124.382812 158.089844 118.019531 152.59375 113.125 C 147.199219 108.390625 141.113281 105.453125 135.359375 103.921875 C 128.261719 102.0625 121.589844 102.09375 116.425781 102.679688 C 103.734375 104.050781 97.421875 107.542969 97.683594 108.425781 C 97.914062 109.304688 104.816406 107.574219 116.6875 107.804688 C 121.460938 107.902344 127.511719 108.457031 133.332031 110.578125 C 138.042969 112.273438 142.914062 115.082031 147 119.191406 C 151.285156 123.433594 154.6875 128.984375 157.402344 135.574219 C 159.558594 140.859375 161.0625 146.210938 163.027344 152.542969 C 164.859375 158.449219 166.984375 164.976562 170.023438 171.339844 C 172.609375 176.917969 176.304688 182.726562 181.894531 187.363281 C 184.546875 189.515625 187.621094 191.277344 191.019531 192.417969 C 194.714844 193.660156 198.542969 194.183594 202.304688 194.082031 C 209.136719 193.953125 216.003906 194.410156 223.460938 194.835938 C 230.003906 195.226562 236.9375 195.585938 243.933594 195.453125 C 244.71875 195.453125 245.503906 195.421875 246.289062 195.390625 C 253.777344 195.160156 261.363281 194.183594 268.722656 191.765625 C 276.148438 189.285156 282.917969 185.042969 288.148438 179.335938 C 293.347656 173.589844 296.390625 166.214844 296.652344 158.679688 C 296.847656 151.269531 294.558594 144.289062 290.765625 138.609375 C 286.613281 132.34375 280.824219 127.675781 274.414062 124.902344 C 266.695312 121.609375 258.488281 121.25 251.292969 122.816406 C 245.242188 124.152344 239.585938 125.035156 234.15625 125.359375 C 227.8125 125.71875 222.351562 125.457031 217.3125 124.285156 C 214.632812 123.664062 212.210938 122.816406 210.054688 121.769531 C 207.632812 120.597656 205.605469 119.160156 203.9375 117.59375 C 201.78125 115.570312 200.210938 113.285156 199.066406 111.296875 C 196.121094 105.910156 195.5 102.222656 194.847656 102.191406 Z M 198.085938 197.019531 C 187.683594 197.019531 179.246094 205.441406 179.246094 215.816406 C 179.246094 226.195312 187.683594 234.613281 198.085938 234.613281 C 208.484375 234.613281 216.921875 226.195312 216.921875 215.816406 C 216.921875 205.441406 208.484375 197.019531 198.085938 197.019531 Z M 272.089844 197.019531 C 261.691406 197.019531 253.253906 205.441406 253.253906 215.816406 C 253.253906 226.195312 261.691406 234.613281 272.089844 234.613281 C 282.492188 234.613281 290.929688 226.195312 290.929688 215.816406 C 290.929688 205.441406 282.492188 197.019531 272.089844 197.019531 Z M 198.050781 206.777344 C 203.085938 206.777344 207.175781 210.824219 207.175781 215.847656 C 207.175781 220.84375 203.121094 224.921875 198.085938 224.921875 C 193.082031 224.921875 188.992188 220.875 188.992188 215.847656 C 188.992188 210.855469 193.046875 206.777344 198.050781 206.777344 Z M 272.058594 206.777344 C 277.09375 206.777344 281.183594 210.824219 281.183594 215.847656 C 281.183594 220.84375 277.128906 224.921875 272.089844 224.921875 C 267.089844 224.921875 263 220.875 263 215.847656 C 263 210.855469 267.054688 206.777344 272.058594 206.777344 Z M 272.058594 206.777344 " fill-opacity="1" fill-rule="nonzero"/></g><g clip-path="url(#a3f7e5489e)"><path fill="#458217" d="M 130.09375 70.703125 C 129.605469 70.703125 129.144531 70.734375 128.65625 70.765625 C 124.140625 77.457031 123.847656 86.136719 127.871094 93.121094 C 131.664062 99.644531 138.628906 103.660156 146.183594 103.691406 C 145.726562 102.941406 145.269531 102.160156 144.8125 101.34375 C 139.578125 92.273438 135.816406 84.636719 136.4375 84.277344 C 137.058594 83.917969 141.835938 90.964844 147.066406 100.039062 C 147.523438 100.820312 147.984375 101.605469 148.40625 102.386719 C 152.167969 95.859375 152.167969 87.800781 148.40625 81.273438 C 144.648438 74.714844 137.648438 70.703125 130.09375 70.703125 Z M 98.175781 74.128906 C 97.882812 74.128906 97.621094 74.128906 97.359375 74.160156 C 93.464844 79.644531 93.074219 86.886719 96.3125 92.761719 C 99.351562 98.277344 105.109375 101.734375 111.386719 101.867188 C 111.027344 101.210938 110.667969 100.558594 110.277344 99.90625 C 106.058594 92.273438 103.082031 85.808594 103.605469 85.550781 C 104.128906 85.253906 107.988281 91.226562 112.171875 98.863281 C 112.53125 99.546875 112.890625 100.199219 113.253906 100.855469 C 116.523438 95.46875 116.652344 88.78125 113.613281 83.265625 C 110.539062 77.621094 104.617188 74.128906 98.175781 74.128906 Z M 189.515625 79.546875 C 186.246094 82.515625 184.9375 87.082031 186.179688 91.324219 C 187.324219 95.304688 190.53125 98.339844 194.519531 99.351562 C 194.390625 98.894531 194.226562 98.40625 194.09375 97.917969 C 192.492188 92.402344 191.511719 87.832031 191.902344 87.734375 C 192.296875 87.636719 193.898438 92.011719 195.5 97.523438 C 195.632812 98.015625 195.761719 98.472656 195.894531 98.960938 C 198.769531 95.992188 199.816406 91.71875 198.671875 87.734375 C 197.429688 83.492188 193.867188 80.296875 189.515625 79.546875 Z M 228.039062 88.257812 C 227.550781 88.257812 227.09375 88.289062 226.601562 88.324219 C 222.089844 95.011719 221.792969 103.691406 225.816406 110.675781 C 229.609375 117.203125 236.574219 121.214844 244.128906 121.25 C 243.671875 120.5 243.214844 119.714844 242.757812 118.898438 C 237.523438 109.828125 233.761719 102.191406 234.382812 101.832031 C 235.007812 101.472656 239.78125 108.523438 245.011719 117.59375 C 245.472656 118.378906 245.929688 119.160156 246.355469 119.945312 C 250.113281 113.417969 250.113281 105.355469 246.355469 98.832031 C 242.625 92.273438 235.628906 88.257812 228.039062 88.257812 Z M 175.714844 90.738281 C 169.46875 90.738281 163.714844 94.035156 160.539062 99.417969 C 157.335938 104.835938 157.269531 111.523438 160.378906 117.007812 C 160.738281 116.355469 161.128906 115.703125 161.523438 115.046875 C 165.96875 107.542969 169.992188 101.667969 170.515625 101.996094 C 171.039062 102.289062 167.867188 108.652344 163.417969 116.160156 C 163.027344 116.8125 162.632812 117.464844 162.273438 118.082031 C 168.585938 118.148438 174.40625 114.820312 177.613281 109.402344 C 181.046875 103.628906 180.851562 96.382812 177.121094 90.769531 C 176.664062 90.738281 176.207031 90.738281 175.714844 90.738281 Z M 206.785156 95.828125 C 203.511719 98.796875 202.203125 103.367188 203.449219 107.609375 C 204.59375 111.589844 207.796875 114.625 211.785156 115.636719 C 211.65625 115.179688 211.492188 114.691406 211.363281 114.199219 C 209.757812 108.683594 208.777344 104.117188 209.171875 104.019531 C 209.5625 103.921875 211.164062 108.292969 212.769531 113.808594 C 212.898438 114.296875 213.03125 114.753906 213.160156 115.246094 C 216.039062 112.273438 217.085938 108 215.941406 104.019531 C 214.699219 99.777344 211.132812 96.613281 206.785156 95.828125 Z M 286.742188 98.015625 C 281.773438 102.550781 279.84375 109.535156 281.738281 115.960938 C 283.539062 122 288.410156 126.601562 294.527344 128.070312 C 294.296875 127.351562 294.101562 126.632812 293.871094 125.914062 C 291.386719 117.5625 289.847656 110.609375 290.4375 110.449219 C 291.027344 110.285156 293.480469 116.941406 295.964844 125.296875 C 296.195312 126.046875 296.390625 126.765625 296.585938 127.449219 C 300.9375 122.878906 302.503906 116.386719 300.707031 110.351562 C 298.808594 103.921875 293.382812 99.125 286.742188 98.015625 Z M 85.683594 100.234375 C 81.070312 100.234375 76.589844 101.734375 72.929688 104.476562 C 66.488281 109.339844 63.347656 117.429688 64.882812 125.359375 C 72.078125 129.015625 80.746094 128.265625 87.21875 123.402344 C 93.269531 118.867188 96.410156 111.460938 95.496094 103.988281 C 94.808594 104.542969 94.054688 105.0625 93.335938 105.617188 C 84.964844 111.917969 77.800781 116.550781 77.375 115.996094 C 76.953125 115.40625 83.394531 109.828125 91.765625 103.53125 C 92.519531 102.976562 93.238281 102.421875 93.957031 101.898438 C 91.339844 100.789062 88.527344 100.234375 85.683594 100.234375 Z M 262.445312 102.550781 C 262.085938 102.550781 261.726562 102.582031 261.363281 102.617188 C 259.011719 106.367188 258.976562 111.101562 261.300781 114.851562 C 263.492188 118.378906 267.347656 120.464844 271.503906 120.335938 C 271.242188 119.910156 270.980469 119.519531 270.71875 119.0625 C 267.710938 114.167969 265.519531 110.054688 265.84375 109.859375 C 266.171875 109.664062 268.917969 113.449219 271.929688 118.3125 C 272.191406 118.734375 272.453125 119.160156 272.710938 119.585938 C 274.675781 115.960938 274.542969 111.523438 272.351562 108.03125 C 270.261719 104.605469 266.464844 102.519531 262.445312 102.550781 Z M 119.628906 112.503906 C 115.148438 112.503906 110.832031 114.296875 107.660156 117.464844 C 103.082031 122.03125 101.511719 128.820312 103.605469 134.953125 C 109.753906 137.042969 116.523438 135.476562 121.132812 130.90625 C 125.417969 126.632812 127.085938 120.402344 125.515625 114.558594 C 125.023438 115.082031 124.503906 115.570312 123.980469 116.09375 C 118.027344 122.03125 112.859375 126.503906 112.46875 126.109375 C 112.042969 125.6875 116.554688 120.5625 122.507812 114.625 C 123.03125 114.101562 123.554688 113.582031 124.042969 113.089844 C 122.605469 112.699219 121.132812 112.503906 119.628906 112.503906 Z M 180.882812 120.628906 C 176.46875 120.957031 172.609375 123.730469 170.941406 127.839844 C 169.402344 131.660156 169.992188 136.03125 172.542969 139.292969 C 172.707031 138.835938 172.902344 138.378906 173.097656 137.925781 C 175.257812 132.605469 177.285156 128.429688 177.675781 128.558594 C 178.035156 128.722656 176.597656 133.128906 174.441406 138.445312 C 174.242188 138.902344 174.046875 139.359375 173.882812 139.816406 C 177.972656 139.230469 181.472656 136.519531 183.007812 132.703125 C 184.675781 128.625 183.859375 123.925781 180.882812 120.628906 Z M 139.578125 121.738281 C 136.929688 121.738281 134.34375 122.683594 132.285156 124.347656 C 132.382812 128.753906 135 132.734375 139.054688 134.59375 C 142.816406 136.324219 147.230469 135.902344 150.597656 133.519531 C 150.140625 133.324219 149.714844 133.128906 149.257812 132.898438 C 144.027344 130.515625 139.9375 128.265625 140.101562 127.90625 C 140.265625 127.546875 144.648438 129.210938 149.847656 131.59375 C 150.304688 131.789062 150.761719 132.015625 151.1875 132.214844 C 150.796875 128.101562 148.246094 124.511719 144.484375 122.78125 C 142.914062 122.097656 141.246094 121.738281 139.578125 121.738281 Z M 196.054688 125.230469 C 195.5 125.230469 194.910156 125.261719 194.355469 125.359375 C 189.972656 126.011719 186.34375 129.082031 185.003906 133.289062 C 187.488281 136.945312 191.871094 138.835938 196.253906 138.21875 C 200.339844 137.628906 203.808594 134.890625 205.34375 131.039062 C 204.855469 131.105469 204.363281 131.203125 203.871094 131.265625 C 198.183594 132.082031 193.539062 132.441406 193.472656 132.050781 C 193.40625 131.660156 197.984375 130.679688 203.675781 129.832031 C 204.167969 129.765625 204.65625 129.699219 205.148438 129.636719 C 202.957031 126.828125 199.589844 125.230469 196.054688 125.230469 Z M 308.390625 129.40625 C 303.976562 129.734375 300.117188 132.507812 298.449219 136.617188 C 296.914062 140.4375 297.5 144.808594 300.054688 148.074219 C 300.214844 147.617188 300.414062 147.160156 300.609375 146.703125 C 302.765625 141.382812 304.792969 137.207031 305.1875 137.335938 C 305.546875 137.5 304.109375 141.90625 301.949219 147.222656 C 301.753906 147.679688 301.558594 148.136719 301.394531 148.59375 C 305.480469 148.007812 308.980469 145.296875 310.519531 141.480469 C 312.1875 137.371094 311.335938 132.703125 308.390625 129.40625 Z M 220.125 135.085938 C 215.644531 135.085938 211.328125 136.878906 208.15625 140.046875 C 203.578125 144.613281 202.007812 151.402344 204.101562 157.535156 C 210.25 159.625 217.019531 158.058594 221.628906 153.488281 C 225.914062 149.214844 227.582031 142.980469 226.011719 137.140625 C 225.523438 137.664062 225 138.152344 224.476562 138.675781 C 218.523438 144.613281 213.355469 149.085938 212.964844 148.691406 C 212.539062 148.269531 217.050781 143.144531 223.003906 137.207031 C 223.527344 136.683594 224.050781 136.160156 224.542969 135.671875 C 223.101562 135.28125 221.597656 135.085938 220.125 135.085938 Z M 244.523438 137.109375 C 240.433594 137.109375 236.675781 139.261719 234.582031 142.722656 C 232.292969 146.507812 232.390625 151.269531 234.808594 154.957031 C 239.226562 155.316406 243.476562 153.164062 245.734375 149.378906 C 247.859375 145.820312 247.921875 141.414062 245.929688 137.824219 C 245.667969 138.25 245.4375 138.675781 245.175781 139.097656 C 242.234375 144.027344 239.550781 147.84375 239.226562 147.648438 C 238.898438 147.453125 240.992188 143.277344 243.964844 138.378906 C 244.226562 137.957031 244.488281 137.53125 244.75 137.109375 C 244.652344 137.109375 244.589844 137.109375 244.523438 137.109375 Z M 266.890625 138.21875 C 262.410156 138.21875 258.09375 140.011719 254.921875 143.175781 C 250.34375 147.746094 248.773438 154.535156 250.867188 160.667969 C 257.015625 162.757812 263.785156 161.191406 268.394531 156.621094 C 272.679688 152.347656 274.347656 146.113281 272.777344 140.273438 C 272.289062 140.796875 271.765625 141.285156 271.242188 141.808594 C 265.289062 147.746094 260.121094 152.214844 259.730469 151.824219 C 259.304688 151.402344 263.816406 146.277344 269.769531 140.339844 C 270.292969 139.816406 270.816406 139.292969 271.308594 138.804688 C 269.902344 138.414062 268.394531 138.21875 266.890625 138.21875 Z M 266.890625 138.21875 " fill-opacity="1" fill-rule="nonzero"/></g><g fill="#f7892d" fill-opacity="1"><g transform="translate(77.238556, 270.51705)"><g><path d="M 24.234375 -28.328125 L 31.640625 -28.328125 C 31.941406 -28.328125 32.195312 -28.21875 32.40625 -28 C 32.625 -27.789062 32.734375 -27.535156 32.734375 -27.234375 L 32.734375 -1.09375 C 32.734375 -0.789062 32.625 -0.53125 32.40625 -0.3125 C 32.195312 -0.101562 31.941406 0 31.640625 0 L 24.328125 0 C 24.023438 0 23.765625 -0.101562 23.546875 -0.3125 C 23.335938 -0.53125 23.234375 -0.789062 23.234375 -1.09375 L 23.234375 -13.640625 L 20.28125 -7.8125 C 20.113281 -7.488281 19.867188 -7.238281 19.546875 -7.0625 C 19.222656 -6.882812 18.898438 -6.796875 18.578125 -6.796875 L 15.828125 -6.796875 C 15.367188 -6.796875 14.988281 -6.914062 14.6875 -7.15625 C 14.394531 -7.40625 14.207031 -7.625 14.125 -7.8125 L 11.171875 -13.640625 L 11.171875 -1.09375 C 11.171875 -0.789062 11.0625 -0.53125 10.84375 -0.3125 C 10.625 -0.101562 10.367188 0 10.078125 0 L 2.75 0 C 2.457031 0 2.203125 -0.101562 1.984375 -0.3125 C 1.765625 -0.53125 1.65625 -0.789062 1.65625 -1.09375 L 1.65625 -27.234375 C 1.65625 -27.535156 1.765625 -27.789062 1.984375 -28 C 2.203125 -28.21875 2.457031 -28.328125 2.75 -28.328125 L 10.15625 -28.328125 C 10.914062 -28.328125 11.492188 -27.960938 11.890625 -27.234375 L 17.203125 -17.515625 L 22.5 -27.234375 C 22.90625 -27.960938 23.484375 -28.328125 24.234375 -28.328125 Z M 24.234375 -28.328125 "/></g></g></g><g fill="#f7892d" fill-opacity="1"><g transform="translate(114.462299, 270.51705)"><g><path d="M 32.25 -16.625 L 32.25 -11.703125 C 32.25 -8.921875 31.570312 -6.597656 30.21875 -4.734375 C 28.875 -2.867188 27.109375 -1.546875 24.921875 -0.765625 C 22.742188 0.015625 20.171875 0.40625 17.203125 0.40625 C 14.234375 0.40625 11.65625 0.015625 9.46875 -0.765625 C 7.28125 -1.546875 5.507812 -2.867188 4.15625 -4.734375 C 2.8125 -6.597656 2.140625 -8.945312 2.140625 -11.78125 L 2.140625 -16.546875 C 2.140625 -20.617188 3.535156 -23.664062 6.328125 -25.6875 C 9.117188 -27.71875 12.738281 -28.734375 17.1875 -28.734375 C 21.644531 -28.734375 25.269531 -27.71875 28.0625 -25.6875 C 30.851562 -23.664062 32.25 -20.644531 32.25 -16.625 Z M 13.078125 -17.40625 L 13.078125 -10.921875 C 13.078125 -9.816406 13.445312 -8.96875 14.1875 -8.375 C 14.925781 -7.78125 15.925781 -7.484375 17.1875 -7.484375 C 18.457031 -7.484375 19.460938 -7.785156 20.203125 -8.390625 C 20.953125 -9.003906 21.328125 -9.863281 21.328125 -10.96875 L 21.328125 -17.359375 C 21.328125 -18.460938 20.953125 -19.316406 20.203125 -19.921875 C 19.460938 -20.535156 18.457031 -20.84375 17.1875 -20.84375 C 15.925781 -20.84375 14.925781 -20.546875 14.1875 -19.953125 C 13.445312 -19.359375 13.078125 -18.507812 13.078125 -17.40625 Z M 13.078125 -17.40625 "/></g></g></g><g fill="#f7892d" fill-opacity="1"><g transform="translate(151.686042, 270.51705)"><g><path d="M 22.34375 -28.328125 L 29.859375 -28.328125 C 30.160156 -28.328125 30.414062 -28.21875 30.625 -28 C 30.84375 -27.789062 30.953125 -27.535156 30.953125 -27.234375 L 30.953125 -1.09375 C 30.953125 -0.789062 30.84375 -0.53125 30.625 -0.3125 C 30.414062 -0.101562 30.160156 0 29.859375 0 L 23.34375 0 C 22.695312 0 22.160156 -0.28125 21.734375 -0.84375 L 12.90625 -12.09375 L 12.90625 -1.09375 C 12.90625 -0.789062 12.796875 -0.53125 12.578125 -0.3125 C 12.367188 -0.101562 12.113281 0 11.8125 0 L 4.296875 0 C 3.992188 0 3.734375 -0.101562 3.515625 -0.3125 C 3.304688 -0.53125 3.203125 -0.789062 3.203125 -1.09375 L 3.203125 -27.234375 C 3.203125 -27.535156 3.304688 -27.789062 3.515625 -28 C 3.734375 -28.21875 3.992188 -28.328125 4.296875 -28.328125 L 10.84375 -28.328125 C 11.488281 -28.328125 12.015625 -28.054688 12.421875 -27.515625 L 21.25 -15.34375 L 21.25 -27.234375 C 21.25 -27.535156 21.351562 -27.789062 21.5625 -28 C 21.78125 -28.21875 22.039062 -28.328125 22.34375 -28.328125 Z M 22.34375 -28.328125 "/></g></g></g><g fill="#f7892d" fill-opacity="1"><g transform="translate(188.909782, 270.51705)"><g><path d="M 27.984375 -2.546875 C 25.328125 -0.578125 21.734375 0.40625 17.203125 0.40625 C 12.671875 0.40625 9.070312 -0.578125 6.40625 -2.546875 C 3.75 -4.515625 2.421875 -7.59375 2.421875 -11.78125 L 2.421875 -27.234375 C 2.421875 -27.535156 2.53125 -27.789062 2.75 -28 C 2.96875 -28.21875 3.222656 -28.328125 3.515625 -28.328125 L 11.984375 -28.328125 C 12.273438 -28.328125 12.53125 -28.21875 12.75 -28 C 12.96875 -27.789062 13.078125 -27.535156 13.078125 -27.234375 L 13.078125 -11.125 C 13.078125 -10.019531 13.445312 -9.171875 14.1875 -8.578125 C 14.925781 -7.984375 15.925781 -7.6875 17.1875 -7.6875 C 18.457031 -7.6875 19.460938 -7.984375 20.203125 -8.578125 C 20.953125 -9.171875 21.328125 -10.019531 21.328125 -11.125 L 21.328125 -27.234375 C 21.328125 -27.535156 21.429688 -27.789062 21.640625 -28 C 21.859375 -28.21875 22.117188 -28.328125 22.421875 -28.328125 L 30.875 -28.328125 C 31.175781 -28.328125 31.429688 -28.21875 31.640625 -28 C 31.859375 -27.789062 31.96875 -27.535156 31.96875 -27.234375 L 31.96875 -11.78125 C 31.96875 -7.59375 30.640625 -4.515625 27.984375 -2.546875 Z M 27.984375 -2.546875 "/></g></g></g><g fill="#f7892d" fill-opacity="1"><g transform="translate(226.133528, 270.51705)"><g><path d="M 14.15625 -7.890625 L 30.3125 -7.890625 C 30.601562 -7.890625 30.859375 -7.78125 31.078125 -7.5625 C 31.296875 -7.351562 31.40625 -7.097656 31.40625 -6.796875 L 31.40625 -1.09375 C 31.40625 -0.789062 31.296875 -0.53125 31.078125 -0.3125 C 30.859375 -0.101562 30.601562 0 30.3125 0 L 4.734375 0 C 4.441406 0 4.1875 -0.101562 3.96875 -0.3125 C 3.75 -0.53125 3.640625 -0.789062 3.640625 -1.09375 L 3.640625 -27.234375 C 3.640625 -27.535156 3.75 -27.789062 3.96875 -28 C 4.1875 -28.21875 4.441406 -28.328125 4.734375 -28.328125 L 29.90625 -28.328125 C 30.195312 -28.328125 30.453125 -28.21875 30.671875 -28 C 30.890625 -27.789062 31 -27.535156 31 -27.234375 L 31 -21.53125 C 31 -21.226562 30.890625 -20.96875 30.671875 -20.75 C 30.453125 -20.539062 30.195312 -20.4375 29.90625 -20.4375 L 14.15625 -20.4375 L 14.15625 -17.890625 L 27.6875 -17.890625 C 27.976562 -17.890625 28.226562 -17.78125 28.4375 -17.5625 C 28.65625 -17.34375 28.765625 -17.085938 28.765625 -16.796875 L 28.765625 -11.53125 C 28.765625 -11.238281 28.65625 -10.984375 28.4375 -10.765625 C 28.226562 -10.546875 27.976562 -10.4375 27.6875 -10.4375 L 14.15625 -10.4375 Z M 14.15625 -7.890625 "/></g></g></g><g fill="#f7892d" fill-opacity="1"><g transform="translate(263.357274, 270.51705)"><g><path d="M 22.34375 -28.328125 L 30.671875 -28.328125 C 30.972656 -28.328125 31.226562 -28.21875 31.4375 -28 C 31.65625 -27.789062 31.765625 -27.535156 31.765625 -27.234375 L 31.765625 -1.09375 C 31.765625 -0.789062 31.65625 -0.53125 31.4375 -0.3125 C 31.226562 -0.101562 30.972656 0 30.671875 0 L 22.34375 0 C 22.039062 0 21.78125 -0.101562 21.5625 -0.3125 C 21.351562 -0.53125 21.25 -0.789062 21.25 -1.09375 L 21.25 -9.71875 L 13.15625 -9.71875 L 13.15625 -1.09375 C 13.15625 -0.789062 13.046875 -0.53125 12.828125 -0.3125 C 12.609375 -0.101562 12.351562 0 12.0625 0 L 3.71875 0 C 3.425781 0 3.171875 -0.0976562 2.953125 -0.296875 C 2.734375 -0.503906 2.625 -0.769531 2.625 -1.09375 L 2.625 -27.234375 C 2.625 -27.535156 2.734375 -27.789062 2.953125 -28 C 3.171875 -28.21875 3.425781 -28.328125 3.71875 -28.328125 L 12.0625 -28.328125 C 12.351562 -28.328125 12.609375 -28.21875 12.828125 -28 C 13.046875 -27.789062 13.15625 -27.535156 13.15625 -27.234375 L 13.15625 -18.9375 L 21.25 -18.9375 L 21.25 -27.234375 C 21.25 -27.535156 21.351562 -27.789062 21.5625 -28 C 21.78125 -28.21875 22.039062 -28.328125 22.34375 -28.328125 Z M 22.34375 -28.328125 "/></g></g></g></svg>