<svg xmlns="http://www.w3.org/2000/svg" xmlns:xlink="http://www.w3.org/1999/xlink" width="500" zoomAndPan="magnify" viewBox="0 0 375 374.999991" height="500" preserveAspectRatio="xMidYMid meet" version="1.0"><defs><g/><clipPath id="e72d2ca737"><path d="M 104 134 L 289 134 L 289 256.070312 L 104 256.070312 Z M 104 134 " clip-rule="nonzero"/></clipPath><clipPath id="235a446dcf"><path d="M 74 105.144531 L 302 105.144531 L 302 189 L 74 189 Z M 74 105.144531 " clip-rule="nonzero"/></clipPath></defs><g clip-path="url(#e72d2ca737)"><path fill="#f7892d" d="M 194.265625 134.128906 C 193.632812 134.191406 192.878906 137.675781 194.957031 143.835938 C 195.738281 146.148438 197.035156 148.824219 199.171875 151.4375 C 200.828125 153.417969 202.9375 155.3125 205.496094 156.933594 C 207.785156 158.378906 210.375 159.550781 213.203125 160.449219 C 218.472656 162.132812 224.257812 162.882812 230.609375 162.882812 C 236.089844 162.882812 241.8125 162.34375 247.804688 161.320312 C 252.921875 160.480469 258.675781 160.960938 263.671875 163.394531 C 267.859375 165.378906 271.683594 168.714844 274.273438 172.890625 C 276.589844 176.675781 278.007812 181.242188 277.734375 185.660156 C 277.554688 190.015625 275.535156 194.554688 272.34375 197.980469 C 268.851562 201.765625 264.09375 204.617188 258.824219 206.363281 C 253.433594 208.164062 247.472656 208.824219 241.179688 209.097656 C 240.515625 209.125 239.855469 209.125 239.191406 209.15625 C 233.257812 209.277344 227.117188 208.945312 221.09375 208.675781 C 214.289062 208.316406 207.664062 207.953125 200.796875 208.164062 C 198.390625 208.226562 196.070312 207.984375 193.992188 207.292969 C 192.097656 206.691406 190.289062 205.699219 188.695312 204.46875 C 185.171875 201.855469 182.519531 197.679688 180.230469 193.351562 C 177.644531 188.363281 175.65625 182.804688 173.789062 177.488281 C 171.832031 171.898438 170.113281 166.699219 167.675781 161.382812 C 164.574219 154.5625 160.417969 148.703125 155.359375 144.195312 C 150.390625 139.839844 144.789062 137.132812 139.492188 135.722656 C 132.957031 134.007812 126.8125 134.039062 122.054688 134.582031 C 110.371094 135.84375 104.5625 139.058594 104.800781 139.867188 C 105.011719 140.679688 111.367188 139.085938 122.296875 139.296875 C 126.691406 139.386719 132.265625 139.898438 137.625 141.851562 C 141.960938 143.414062 146.445312 146 150.210938 149.785156 C 154.15625 153.691406 157.285156 158.796875 159.785156 164.867188 C 161.773438 169.734375 163.160156 174.664062 164.964844 180.492188 C 166.652344 185.929688 168.609375 191.9375 171.410156 197.796875 C 173.789062 202.9375 177.191406 208.285156 182.339844 212.550781 C 184.777344 214.535156 187.609375 216.15625 190.742188 217.207031 C 194.144531 218.351562 197.667969 218.832031 201.128906 218.742188 C 207.421875 218.621094 213.746094 219.042969 220.613281 219.433594 C 226.636719 219.792969 233.019531 220.125 239.460938 220.003906 C 240.183594 220.003906 240.90625 219.972656 241.628906 219.941406 C 248.527344 219.734375 255.511719 218.832031 262.289062 216.609375 C 269.121094 214.324219 275.355469 210.417969 280.175781 205.160156 C 284.960938 199.871094 287.761719 193.082031 288.003906 186.140625 C 288.183594 179.320312 286.074219 172.890625 282.582031 167.660156 C 278.757812 161.894531 273.429688 157.597656 267.527344 155.042969 C 260.421875 152.007812 252.863281 151.675781 246.238281 153.121094 C 240.667969 154.351562 235.457031 155.164062 230.460938 155.460938 C 224.617188 155.792969 219.589844 155.554688 214.953125 154.472656 C 212.480469 153.902344 210.253906 153.121094 208.265625 152.15625 C 206.039062 151.074219 204.171875 149.753906 202.636719 148.3125 C 200.648438 146.449219 199.203125 144.34375 198.148438 142.511719 C 195.4375 137.554688 194.867188 134.160156 194.265625 134.128906 Z M 197.246094 221.445312 C 187.667969 221.445312 179.902344 229.195312 179.902344 238.75 C 179.902344 248.308594 187.667969 256.058594 197.246094 256.058594 C 206.820312 256.058594 214.589844 248.308594 214.589844 238.75 C 214.589844 229.195312 206.820312 221.445312 197.246094 221.445312 Z M 265.390625 221.445312 C 255.8125 221.445312 248.042969 229.195312 248.042969 238.75 C 248.042969 248.308594 255.8125 256.058594 265.390625 256.058594 C 274.964844 256.058594 282.734375 248.308594 282.734375 238.75 C 282.734375 229.195312 274.964844 221.445312 265.390625 221.445312 Z M 197.214844 230.429688 C 201.851562 230.429688 205.617188 234.15625 205.617188 238.78125 C 205.617188 243.378906 201.882812 247.136719 197.246094 247.136719 C 192.636719 247.136719 188.875 243.410156 188.875 238.78125 C 188.875 234.183594 192.609375 230.429688 197.214844 230.429688 Z M 265.359375 230.429688 C 269.996094 230.429688 273.761719 234.15625 273.761719 238.78125 C 273.761719 243.378906 270.027344 247.136719 265.390625 247.136719 C 260.78125 247.136719 257.019531 243.410156 257.019531 238.78125 C 257.019531 234.183594 260.75 230.429688 265.359375 230.429688 Z M 265.359375 230.429688 " fill-opacity="1" fill-rule="nonzero"/></g><g clip-path="url(#235a446dcf)"><path fill="#458217" d="M 134.644531 105.136719 C 134.191406 105.136719 133.769531 105.164062 133.316406 105.195312 C 129.164062 111.355469 128.890625 119.347656 132.59375 125.777344 C 136.089844 131.785156 142.5 135.480469 149.457031 135.511719 C 149.035156 134.820312 148.613281 134.101562 148.191406 133.347656 C 143.375 124.996094 139.914062 117.964844 140.484375 117.632812 C 141.054688 117.304688 145.453125 123.792969 150.269531 132.148438 C 150.691406 132.867188 151.113281 133.589844 151.503906 134.308594 C 154.96875 128.300781 154.96875 120.878906 151.503906 114.871094 C 148.042969 108.832031 141.597656 105.136719 134.644531 105.136719 Z M 105.253906 108.289062 C 104.980469 108.289062 104.742188 108.289062 104.5 108.320312 C 100.917969 113.367188 100.554688 120.039062 103.535156 125.445312 C 106.335938 130.523438 111.636719 133.710938 117.417969 133.828125 C 117.085938 133.226562 116.757812 132.628906 116.394531 132.027344 C 112.511719 124.996094 109.769531 119.046875 110.25 118.804688 C 110.734375 118.535156 114.285156 124.035156 118.140625 131.066406 C 118.472656 131.695312 118.804688 132.296875 119.136719 132.898438 C 122.144531 127.941406 122.265625 121.78125 119.464844 116.703125 C 116.636719 111.503906 111.183594 108.289062 105.253906 108.289062 Z M 189.355469 113.277344 C 186.34375 116.011719 185.140625 120.21875 186.285156 124.125 C 187.339844 127.789062 190.289062 130.585938 193.964844 131.515625 C 193.84375 131.09375 193.691406 130.644531 193.570312 130.195312 C 192.097656 125.117188 191.191406 120.910156 191.554688 120.820312 C 191.914062 120.730469 193.390625 124.753906 194.867188 129.832031 C 194.988281 130.285156 195.109375 130.703125 195.226562 131.15625 C 197.878906 128.421875 198.839844 124.484375 197.789062 120.820312 C 196.644531 116.914062 193.359375 113.96875 189.355469 113.277344 Z M 224.828125 121.300781 C 224.375 121.300781 223.953125 121.328125 223.503906 121.359375 C 219.347656 127.519531 219.078125 135.511719 222.78125 141.941406 C 226.273438 147.953125 232.6875 151.648438 239.644531 151.675781 C 239.222656 150.984375 238.800781 150.265625 238.378906 149.511719 C 233.5625 141.160156 230.097656 134.128906 230.667969 133.800781 C 231.242188 133.46875 235.636719 139.957031 240.457031 148.3125 C 240.878906 149.03125 241.300781 149.753906 241.691406 150.476562 C 245.152344 144.464844 245.152344 137.042969 241.691406 131.035156 C 238.257812 124.996094 231.8125 121.300781 224.828125 121.300781 Z M 176.648438 123.582031 C 170.898438 123.582031 165.597656 126.617188 162.675781 131.574219 C 159.726562 136.5625 159.664062 142.722656 162.527344 147.769531 C 162.859375 147.171875 163.21875 146.570312 163.582031 145.96875 C 167.675781 139.058594 171.378906 133.648438 171.859375 133.949219 C 172.34375 134.21875 169.421875 140.078125 165.328125 146.988281 C 164.964844 147.589844 164.605469 148.191406 164.273438 148.761719 C 170.085938 148.824219 175.445312 145.757812 178.394531 140.769531 C 181.558594 135.453125 181.375 128.78125 177.945312 123.613281 C 177.523438 123.582031 177.101562 123.582031 176.648438 123.582031 Z M 205.253906 128.269531 C 202.242188 131.003906 201.039062 135.210938 202.183594 139.117188 C 203.238281 142.78125 206.1875 145.578125 209.863281 146.507812 C 209.742188 146.089844 209.589844 145.636719 209.472656 145.1875 C 207.996094 140.109375 207.09375 135.902344 207.453125 135.8125 C 207.816406 135.722656 209.289062 139.75 210.765625 144.828125 C 210.886719 145.277344 211.007812 145.699219 211.128906 146.148438 C 213.777344 143.414062 214.742188 139.476562 213.6875 135.8125 C 212.542969 131.90625 209.261719 128.992188 205.253906 128.269531 Z M 278.878906 130.285156 C 274.300781 134.460938 272.527344 140.890625 274.273438 146.808594 C 275.929688 152.367188 280.414062 156.605469 286.046875 157.957031 C 285.835938 157.296875 285.65625 156.632812 285.445312 155.972656 C 283.15625 148.28125 281.738281 141.882812 282.28125 141.730469 C 282.824219 141.582031 285.082031 147.710938 287.371094 155.402344 C 287.582031 156.09375 287.761719 156.753906 287.941406 157.386719 C 291.949219 153.179688 293.394531 147.199219 291.738281 141.640625 C 289.992188 135.722656 284.992188 131.304688 278.878906 130.285156 Z M 93.75 132.328125 C 89.503906 132.328125 85.378906 133.710938 82.007812 136.234375 C 76.074219 140.710938 73.183594 148.160156 74.597656 155.460938 C 81.222656 158.828125 89.203125 158.136719 95.164062 153.660156 C 100.738281 149.484375 103.628906 142.664062 102.785156 135.78125 C 102.152344 136.292969 101.460938 136.773438 100.796875 137.285156 C 93.089844 143.082031 86.492188 147.351562 86.101562 146.839844 C 85.710938 146.296875 91.644531 141.160156 99.351562 135.363281 C 100.042969 134.851562 100.707031 134.339844 101.367188 133.859375 C 98.960938 132.835938 96.371094 132.328125 93.75 132.328125 Z M 256.507812 134.460938 C 256.175781 134.460938 255.84375 134.492188 255.511719 134.519531 C 253.34375 137.976562 253.3125 142.332031 255.453125 145.789062 C 257.46875 149.03125 261.023438 150.957031 264.847656 150.835938 C 264.605469 150.445312 264.363281 150.085938 264.125 149.664062 C 261.355469 145.15625 259.335938 141.371094 259.636719 141.191406 C 259.9375 141.011719 262.46875 144.496094 265.238281 148.972656 C 265.480469 149.363281 265.71875 149.753906 265.960938 150.144531 C 267.769531 146.808594 267.648438 142.722656 265.628906 139.507812 C 263.703125 136.351562 260.210938 134.429688 256.507812 134.460938 Z M 125.007812 143.625 C 120.882812 143.625 116.90625 145.277344 113.984375 148.191406 C 109.769531 152.398438 108.324219 158.648438 110.25 164.296875 C 115.914062 166.21875 122.144531 164.777344 126.390625 160.570312 C 130.335938 156.632812 131.871094 150.894531 130.425781 145.515625 C 129.976562 146 129.492188 146.449219 129.011719 146.929688 C 123.53125 152.398438 118.773438 156.515625 118.414062 156.152344 C 118.019531 155.761719 122.175781 151.046875 127.65625 145.578125 C 128.136719 145.097656 128.621094 144.617188 129.070312 144.164062 C 127.746094 143.804688 126.390625 143.625 125.007812 143.625 Z M 181.40625 151.105469 C 177.339844 151.40625 173.789062 153.960938 172.253906 157.746094 C 170.835938 161.261719 171.378906 165.289062 173.726562 168.292969 C 173.878906 167.871094 174.058594 167.453125 174.238281 167.03125 C 176.226562 162.132812 178.09375 158.289062 178.457031 158.40625 C 178.785156 158.558594 177.460938 162.613281 175.472656 167.511719 C 175.292969 167.933594 175.113281 168.351562 174.960938 168.773438 C 178.726562 168.234375 181.949219 165.738281 183.363281 162.222656 C 184.898438 158.46875 184.148438 154.140625 181.40625 151.105469 Z M 143.375 152.128906 C 140.9375 152.128906 138.558594 153 136.660156 154.53125 C 136.75 158.585938 139.160156 162.253906 142.894531 163.964844 C 146.355469 165.558594 150.421875 165.167969 153.523438 162.972656 C 153.101562 162.792969 152.710938 162.613281 152.289062 162.402344 C 147.46875 160.210938 143.707031 158.136719 143.855469 157.804688 C 144.007812 157.476562 148.042969 159.007812 152.832031 161.203125 C 153.25 161.382812 153.671875 161.59375 154.066406 161.773438 C 153.703125 157.988281 151.355469 154.679688 147.890625 153.089844 C 146.445312 152.457031 144.910156 152.128906 143.375 152.128906 Z M 195.378906 155.34375 C 194.867188 155.34375 194.324219 155.371094 193.8125 155.460938 C 189.777344 156.0625 186.433594 158.886719 185.199219 162.765625 C 187.488281 166.128906 191.523438 167.871094 195.558594 167.300781 C 199.324219 166.761719 202.515625 164.238281 203.929688 160.691406 C 203.480469 160.75 203.027344 160.839844 202.574219 160.902344 C 197.335938 161.652344 193.058594 161.984375 193 161.621094 C 192.941406 161.261719 197.15625 160.359375 202.394531 159.578125 C 202.847656 159.519531 203.296875 159.460938 203.75 159.398438 C 201.730469 156.816406 198.628906 155.34375 195.378906 155.34375 Z M 298.8125 159.1875 C 294.75 159.488281 291.195312 162.042969 289.660156 165.828125 C 288.242188 169.34375 288.785156 173.371094 291.136719 176.375 C 291.285156 175.953125 291.464844 175.535156 291.648438 175.113281 C 293.632812 170.214844 295.5 166.371094 295.863281 166.488281 C 296.195312 166.640625 294.867188 170.695312 292.882812 175.59375 C 292.699219 176.015625 292.519531 176.433594 292.371094 176.855469 C 296.132812 176.316406 299.355469 173.820312 300.769531 170.304688 C 302.304688 166.519531 301.523438 162.222656 298.8125 159.1875 Z M 217.542969 164.417969 C 213.414062 164.417969 209.441406 166.070312 206.519531 168.984375 C 202.304688 173.191406 200.859375 179.441406 202.785156 185.089844 C 208.445312 187.011719 214.679688 185.570312 218.925781 181.363281 C 222.871094 177.425781 224.40625 171.6875 222.960938 166.308594 C 222.507812 166.789062 222.027344 167.242188 221.546875 167.722656 C 216.066406 173.191406 211.308594 177.308594 210.945312 176.945312 C 210.554688 176.554688 214.710938 171.839844 220.191406 166.371094 C 220.671875 165.890625 221.15625 165.410156 221.605469 164.957031 C 220.28125 164.597656 218.894531 164.417969 217.542969 164.417969 Z M 240.003906 166.28125 C 236.242188 166.28125 232.777344 168.261719 230.851562 171.449219 C 228.742188 174.933594 228.832031 179.320312 231.0625 182.714844 C 235.125 183.046875 239.039062 181.0625 241.117188 177.578125 C 243.074219 174.300781 243.136719 170.246094 241.300781 166.941406 C 241.058594 167.332031 240.847656 167.722656 240.605469 168.113281 C 237.898438 172.648438 235.425781 176.164062 235.125 175.984375 C 234.824219 175.804688 236.753906 171.957031 239.492188 167.453125 C 239.734375 167.0625 239.972656 166.671875 240.214844 166.28125 C 240.125 166.28125 240.066406 166.28125 240.003906 166.28125 Z M 260.601562 167.300781 C 256.476562 167.300781 252.5 168.953125 249.582031 171.867188 C 245.363281 176.074219 243.917969 182.324219 245.847656 187.972656 C 251.507812 189.894531 257.742188 188.453125 261.988281 184.246094 C 265.929688 180.3125 267.464844 174.574219 266.019531 169.195312 C 265.570312 169.675781 265.089844 170.125 264.605469 170.605469 C 259.125 176.074219 254.367188 180.191406 254.007812 179.832031 C 253.613281 179.441406 257.769531 174.722656 263.25 169.253906 C 263.734375 168.773438 264.214844 168.292969 264.667969 167.84375 C 263.371094 167.480469 261.988281 167.300781 260.601562 167.300781 Z M 260.601562 167.300781 " fill-opacity="1" fill-rule="nonzero"/></g><g fill="#f7892d" fill-opacity="1"><g transform="translate(73.742223, 290.37857)"><g><path d="M 27.46875 0 L 27.421875 -17.296875 L 18.859375 -2.984375 L 16.6875 -2.984375 L 8.125 -17.0625 L 8.125 0 L 3.5 0 L 3.5 -26.078125 L 7.484375 -26.078125 L 17.84375 -8.796875 L 28.03125 -26.078125 L 32.015625 -26.078125 L 32.046875 0 Z M 27.46875 0 "/></g></g></g><g fill="#f7892d" fill-opacity="1"><g transform="translate(111.933376, 290.37857)"><g><path d="M 15.6875 0.375 C 13.03125 0.375 10.632812 -0.203125 8.5 -1.359375 C 6.363281 -2.515625 4.6875 -4.113281 3.46875 -6.15625 C 2.25 -8.207031 1.640625 -10.503906 1.640625 -13.046875 C 1.640625 -15.578125 2.25 -17.867188 3.46875 -19.921875 C 4.6875 -21.972656 6.363281 -23.570312 8.5 -24.71875 C 10.632812 -25.875 13.03125 -26.453125 15.6875 -26.453125 C 18.34375 -26.453125 20.738281 -25.875 22.875 -24.71875 C 25.007812 -23.570312 26.6875 -21.976562 27.90625 -19.9375 C 29.125 -17.894531 29.734375 -15.597656 29.734375 -13.046875 C 29.734375 -10.484375 29.125 -8.179688 27.90625 -6.140625 C 26.6875 -4.109375 25.007812 -2.515625 22.875 -1.359375 C 20.738281 -0.203125 18.34375 0.375 15.6875 0.375 Z M 15.6875 -3.875 C 17.425781 -3.875 18.988281 -4.265625 20.375 -5.046875 C 21.769531 -5.828125 22.863281 -6.921875 23.65625 -8.328125 C 24.457031 -9.734375 24.859375 -11.304688 24.859375 -13.046875 C 24.859375 -14.785156 24.457031 -16.351562 23.65625 -17.75 C 22.863281 -19.15625 21.769531 -20.25 20.375 -21.03125 C 18.988281 -21.8125 17.425781 -22.203125 15.6875 -22.203125 C 13.945312 -22.203125 12.378906 -21.8125 10.984375 -21.03125 C 9.597656 -20.25 8.503906 -19.15625 7.703125 -17.75 C 6.910156 -16.351562 6.515625 -14.785156 6.515625 -13.046875 C 6.515625 -11.304688 6.910156 -9.734375 7.703125 -8.328125 C 8.503906 -6.921875 9.597656 -5.828125 10.984375 -5.046875 C 12.378906 -4.265625 13.945312 -3.875 15.6875 -3.875 Z M 15.6875 -3.875 "/></g></g></g><g fill="#f7892d" fill-opacity="1"><g transform="translate(145.914235, 290.37857)"><g><path d="M 26.6875 -26.078125 L 26.6875 0 L 22.6875 0 L 8.3125 -17.65625 L 8.3125 0 L 3.5 0 L 3.5 -26.078125 L 7.484375 -26.078125 L 21.875 -8.421875 L 21.875 -26.078125 Z M 26.6875 -26.078125 "/></g></g></g><g fill="#f7892d" fill-opacity="1"><g transform="translate(178.702792, 290.37857)"><g><path d="M 14.71875 0.375 C 11.113281 0.375 8.304688 -0.632812 6.296875 -2.65625 C 4.285156 -4.6875 3.28125 -7.585938 3.28125 -11.359375 L 3.28125 -26.078125 L 8.125 -26.078125 L 8.125 -11.546875 C 8.125 -6.429688 10.332031 -3.875 14.75 -3.875 C 19.15625 -3.875 21.359375 -6.429688 21.359375 -11.546875 L 21.359375 -26.078125 L 26.125 -26.078125 L 26.125 -11.359375 C 26.125 -7.585938 25.125 -4.6875 23.125 -2.65625 C 21.125 -0.632812 18.320312 0.375 14.71875 0.375 Z M 14.71875 0.375 "/></g></g></g><g fill="#f7892d" fill-opacity="1"><g transform="translate(210.708913, 290.37857)"><g><path d="M 26.6875 -26.078125 L 26.6875 0 L 22.6875 0 L 8.3125 -17.65625 L 8.3125 0 L 3.5 0 L 3.5 -26.078125 L 7.484375 -26.078125 L 21.875 -8.421875 L 21.875 -26.078125 Z M 26.6875 -26.078125 "/></g></g></g><g fill="#f7892d" fill-opacity="1"><g transform="translate(243.49748, 290.37857)"><g><path d="M 23.0625 -4.0625 L 23.0625 0 L 3.5 0 L 3.5 -26.078125 L 22.546875 -26.078125 L 22.546875 -22.03125 L 8.34375 -22.03125 L 8.34375 -15.234375 L 20.9375 -15.234375 L 20.9375 -11.25 L 8.34375 -11.25 L 8.34375 -4.0625 Z M 23.0625 -4.0625 "/></g></g></g><g fill="#f7892d" fill-opacity="1"><g transform="translate(271.069753, 290.37857)"><g><path d="M 26.6875 -26.078125 L 26.6875 0 L 21.84375 0 L 21.84375 -11.171875 L 8.34375 -11.171875 L 8.34375 0 L 3.5 0 L 3.5 -26.078125 L 8.34375 -26.078125 L 8.34375 -15.3125 L 21.84375 -15.3125 L 21.84375 -26.078125 Z M 26.6875 -26.078125 "/></g></g></g></svg>